<?xml version="1.0" encoding="utf-8" standalone="no"?>
<!DOCTYPE svg PUBLIC "-//W3C//DTD SVG 1.1//EN"
  "http://www.w3.org/Graphics/SVG/1.1/DTD/svg11.dtd">
<svg xmlns:xlink="http://www.w3.org/1999/xlink" width="1208.16pt" height="385.2pt" viewBox="0 0 1208.16 385.2" xmlns="http://www.w3.org/2000/svg" version="1.1">
 <metadata>
  <rdf:RDF xmlns:dc="http://purl.org/dc/elements/1.1/" xmlns:cc="http://creativecommons.org/ns#" xmlns:rdf="http://www.w3.org/1999/02/22-rdf-syntax-ns#">
   <cc:Work>
    <dc:type rdf:resource="http://purl.org/dc/dcmitype/StillImage"/>
    <dc:date>2022-03-09T15:34:12.044133</dc:date>
    <dc:format>image/svg+xml</dc:format>
    <dc:creator>
     <cc:Agent>
      <dc:title>Matplotlib v3.5.1, https://matplotlib.org/</dc:title>
     </cc:Agent>
    </dc:creator>
   </cc:Work>
  </rdf:RDF>
 </metadata>
 <defs>
  <style type="text/css">*{stroke-linejoin: round; stroke-linecap: butt}</style>
 </defs>
 <g id="figure_1">
  <g id="patch_1">
   <path d="M 0 385.2 
L 1208.16 385.2 
L 1208.16 0 
L 0 0 
z
" style="fill: #ffffff"/>
  </g>
  <g id="axes_1">
   <g id="patch_2">
    <path d="M 862.502482 304.47803 
L 874.552019 304.47803 
L 868.52725 313.1676 
z
" clip-path="url(#pf626c4477d)" style="fill: #778899"/>
   </g>
   <g id="patch_3">
    <path d="M 908.846857 304.47803 
L 920.896394 304.47803 
L 914.871625 313.1676 
z
" clip-path="url(#pf626c4477d)" style="fill: #778899"/>
   </g>
   <g id="line2d_1">
    <path d="M 241.024413 83.2995 
L 1079.8576 83.2995 
" clip-path="url(#pf626c4477d)" style="fill: none; stroke: #000000; stroke-width: 2; stroke-linecap: square"/>
   </g>
   <g id="line2d_2">
    <path d="M 241.024413 129.643875 
L 1079.8576 129.643875 
" clip-path="url(#pf626c4477d)" style="fill: none; stroke: #000000; stroke-width: 2; stroke-linecap: square"/>
   </g>
   <g id="line2d_3">
    <path d="M 241.024413 175.98825 
L 1079.8576 175.98825 
" clip-path="url(#pf626c4477d)" style="fill: none; stroke: #000000; stroke-width: 2; stroke-linecap: square"/>
   </g>
   <g id="line2d_4">
    <path d="M 241.024413 222.332625 
L 1079.8576 222.332625 
" clip-path="url(#pf626c4477d)" style="fill: none; stroke: #000000; stroke-width: 2; stroke-linecap: square"/>
   </g>
   <g id="line2d_5">
    <path d="M 241.024413 268.677 
L 1079.8576 268.677 
" clip-path="url(#pf626c4477d)" style="fill: none; stroke: #000000; stroke-width: 2; stroke-linecap: square"/>
   </g>
   <g id="line2d_6">
    <path d="M 241.024413 313.515183 
L 1079.8576 313.515183 
" clip-path="url(#pf626c4477d)" style="fill: none; stroke: #778899; stroke-width: 2; stroke-linecap: square"/>
   </g>
   <g id="line2d_7">
    <path d="M 241.024413 316.527567 
L 1079.8576 316.527567 
" clip-path="url(#pf626c4477d)" style="fill: none; stroke: #778899; stroke-width: 2; stroke-linecap: square"/>
   </g>
   <g id="line2d_8">
    <path d="M 250.293288 319.655812 
L 254.927725 310.386937 
" clip-path="url(#pf626c4477d)" style="fill: none; stroke: #778899; stroke-width: 1.5; stroke-linecap: square"/>
   </g>
   <g id="patch_4">
    <path d="M 442.390722 106.471687 
L 460.465029 106.471687 
L 460.465029 60.127312 
L 442.390722 60.127312 
z
" clip-path="url(#pf626c4477d)" style="fill: #bdbdbd; opacity: 0.6"/>
   </g>
   <g id="patch_5">
    <path d="M 442.390722 152.816062 
L 460.465029 152.816062 
L 460.465029 106.471687 
L 442.390722 106.471687 
z
" clip-path="url(#pf626c4477d)" style="fill: #bdbdbd; opacity: 0.6"/>
   </g>
   <g id="patch_6">
    <path d="M 442.390722 199.160437 
L 460.465029 199.160437 
L 460.465029 152.816062 
L 442.390722 152.816062 
z
" clip-path="url(#pf626c4477d)" style="fill: #bdbdbd; opacity: 0.6"/>
   </g>
   <g id="patch_7">
    <path d="M 442.390722 245.504812 
L 460.465029 245.504812 
L 460.465029 199.160437 
L 442.390722 199.160437 
z
" clip-path="url(#pf626c4477d)" style="fill: #bdbdbd; opacity: 0.6"/>
   </g>
   <g id="patch_8">
    <path d="M 442.390722 291.849187 
L 460.465029 291.849187 
L 460.465029 245.504812 
L 442.390722 245.504812 
z
" clip-path="url(#pf626c4477d)" style="fill: #bdbdbd; opacity: 0.6"/>
   </g>
   <g id="line2d_9">
    <path d="M 544.116625 129.643875 
L 544.116625 83.2995 
" clip-path="url(#pf626c4477d)" style="fill: none; stroke: #6fa4ff; stroke-width: 2; stroke-linecap: square"/>
   </g>
   <g id="patch_9">
    <path d="M 581.423847 106.471687 
L 599.498154 106.471687 
L 599.498154 60.127312 
L 581.423847 60.127312 
z
" clip-path="url(#pf626c4477d)" style="fill: #bdbdbd; opacity: 0.6"/>
   </g>
   <g id="patch_10">
    <path d="M 581.423847 152.816062 
L 599.498154 152.816062 
L 599.498154 106.471687 
L 581.423847 106.471687 
z
" clip-path="url(#pf626c4477d)" style="fill: #bdbdbd; opacity: 0.6"/>
   </g>
   <g id="patch_11">
    <path d="M 581.423847 199.160437 
L 599.498154 199.160437 
L 599.498154 152.816062 
L 581.423847 152.816062 
z
" clip-path="url(#pf626c4477d)" style="fill: #bdbdbd; opacity: 0.6"/>
   </g>
   <g id="patch_12">
    <path d="M 581.423847 245.504812 
L 599.498154 245.504812 
L 599.498154 199.160437 
L 581.423847 199.160437 
z
" clip-path="url(#pf626c4477d)" style="fill: #bdbdbd; opacity: 0.6"/>
   </g>
   <g id="patch_13">
    <path d="M 581.423847 291.849187 
L 599.498154 291.849187 
L 599.498154 245.504812 
L 581.423847 245.504812 
z
" clip-path="url(#pf626c4477d)" style="fill: #bdbdbd; opacity: 0.6"/>
   </g>
   <g id="line2d_10">
    <path d="M 636.805375 83.2995 
L 636.805375 222.332625 
" clip-path="url(#pf626c4477d)" style="fill: none; stroke: #6fa4ff; stroke-width: 2; stroke-linecap: square"/>
   </g>
   <g id="line2d_11">
    <path d="M 683.14975 129.643875 
L 683.14975 268.677 
" clip-path="url(#pf626c4477d)" style="fill: none; stroke: #6fa4ff; stroke-width: 2; stroke-linecap: square"/>
   </g>
   <g id="line2d_12">
    <path d="M 729.494125 222.332625 
L 729.494125 175.98825 
" clip-path="url(#pf626c4477d)" style="fill: none; stroke: #6fa4ff; stroke-width: 2; stroke-linecap: square"/>
   </g>
   <g id="patch_14">
    <path d="M 813.145722 106.471687 
L 831.220029 106.471687 
L 831.220029 60.127312 
L 813.145722 60.127312 
z
" clip-path="url(#pf626c4477d)" style="fill: #bdbdbd; opacity: 0.6"/>
   </g>
   <g id="patch_15">
    <path d="M 813.145722 152.816062 
L 831.220029 152.816062 
L 831.220029 106.471687 
L 813.145722 106.471687 
z
" clip-path="url(#pf626c4477d)" style="fill: #bdbdbd; opacity: 0.6"/>
   </g>
   <g id="patch_16">
    <path d="M 813.145722 199.160437 
L 831.220029 199.160437 
L 831.220029 152.816062 
L 813.145722 152.816062 
z
" clip-path="url(#pf626c4477d)" style="fill: #bdbdbd; opacity: 0.6"/>
   </g>
   <g id="patch_17">
    <path d="M 813.145722 245.504812 
L 831.220029 245.504812 
L 831.220029 199.160437 
L 813.145722 199.160437 
z
" clip-path="url(#pf626c4477d)" style="fill: #bdbdbd; opacity: 0.6"/>
   </g>
   <g id="patch_18">
    <path d="M 813.145722 291.849187 
L 831.220029 291.849187 
L 831.220029 245.504812 
L 813.145722 245.504812 
z
" clip-path="url(#pf626c4477d)" style="fill: #bdbdbd; opacity: 0.6"/>
   </g>
   <g id="line2d_13">
    <path d="M 870.033443 222.332625 
L 870.033443 304.47803 
" clip-path="url(#pf626c4477d)" style="fill: none; stroke: #778899; stroke-width: 2; stroke-linecap: square"/>
   </g>
   <g id="line2d_14">
    <path d="M 867.021058 222.332625 
L 867.021058 304.47803 
" clip-path="url(#pf626c4477d)" style="fill: none; stroke: #778899; stroke-width: 2; stroke-linecap: square"/>
   </g>
   <g id="line2d_15">
    <path d="M 916.377818 175.98825 
L 916.377818 304.47803 
" clip-path="url(#pf626c4477d)" style="fill: none; stroke: #778899; stroke-width: 2; stroke-linecap: square"/>
   </g>
   <g id="line2d_16">
    <path d="M 913.365433 175.98825 
L 913.365433 304.47803 
" clip-path="url(#pf626c4477d)" style="fill: none; stroke: #778899; stroke-width: 2; stroke-linecap: square"/>
   </g>
   <g id="patch_19">
    <path d="M 952.178847 106.471687 
L 970.253154 106.471687 
L 970.253154 60.127312 
L 952.178847 60.127312 
z
" clip-path="url(#pf626c4477d)" style="fill: #bdbdbd; opacity: 0.6"/>
   </g>
   <g id="patch_20">
    <path d="M 952.178847 152.816062 
L 970.253154 152.816062 
L 970.253154 106.471687 
L 952.178847 106.471687 
z
" clip-path="url(#pf626c4477d)" style="fill: #bdbdbd; opacity: 0.6"/>
   </g>
   <g id="patch_21">
    <path d="M 952.178847 199.160437 
L 970.253154 199.160437 
L 970.253154 152.816062 
L 952.178847 152.816062 
z
" clip-path="url(#pf626c4477d)" style="fill: #bdbdbd; opacity: 0.6"/>
   </g>
   <g id="patch_22">
    <path d="M 952.178847 245.504812 
L 970.253154 245.504812 
L 970.253154 199.160437 
L 952.178847 199.160437 
z
" clip-path="url(#pf626c4477d)" style="fill: #bdbdbd; opacity: 0.6"/>
   </g>
   <g id="patch_23">
    <path d="M 952.178847 291.849187 
L 970.253154 291.849187 
L 970.253154 245.504812 
L 952.178847 245.504812 
z
" clip-path="url(#pf626c4477d)" style="fill: #bdbdbd; opacity: 0.6"/>
   </g>
   <g id="line2d_17">
    <path d="M 1009.066568 268.677 
L 1009.066568 315.021375 
" clip-path="url(#pf626c4477d)" style="fill: none; stroke: #778899; stroke-width: 2; stroke-linecap: square"/>
   </g>
   <g id="line2d_18">
    <path d="M 1006.054183 268.677 
L 1006.054183 315.021375 
" clip-path="url(#pf626c4477d)" style="fill: none; stroke: #778899; stroke-width: 2; stroke-linecap: square"/>
   </g>
   <g id="line2d_19">
    <path d="M 1055.410943 268.677 
L 1055.410943 315.021375 
" clip-path="url(#pf626c4477d)" style="fill: none; stroke: #778899; stroke-width: 2; stroke-linecap: square"/>
   </g>
   <g id="line2d_20">
    <path d="M 1052.398558 268.677 
L 1052.398558 315.021375 
" clip-path="url(#pf626c4477d)" style="fill: none; stroke: #778899; stroke-width: 2; stroke-linecap: square"/>
   </g>
   <g id="line2d_21">
    <path d="M 630.780607 89.324269 
L 642.830144 77.274731 
" clip-path="url(#pf626c4477d)" style="fill: none; stroke: #6fa4ff; stroke-width: 2; stroke-linecap: square"/>
   </g>
   <g id="line2d_22">
    <path d="M 630.780607 77.274731 
L 642.830144 89.324269 
" clip-path="url(#pf626c4477d)" style="fill: none; stroke: #6fa4ff; stroke-width: 2; stroke-linecap: square"/>
   </g>
   <g id="line2d_23">
    <path d="M 630.780607 228.357394 
L 642.830144 216.307856 
" clip-path="url(#pf626c4477d)" style="fill: none; stroke: #6fa4ff; stroke-width: 2; stroke-linecap: square"/>
   </g>
   <g id="line2d_24">
    <path d="M 630.780607 216.307856 
L 642.830144 228.357394 
" clip-path="url(#pf626c4477d)" style="fill: none; stroke: #6fa4ff; stroke-width: 2; stroke-linecap: square"/>
   </g>
   <g id="line2d_25">
    <path d="M 677.124982 135.668644 
L 689.174519 123.619106 
" clip-path="url(#pf626c4477d)" style="fill: none; stroke: #6fa4ff; stroke-width: 2; stroke-linecap: square"/>
   </g>
   <g id="line2d_26">
    <path d="M 677.124982 123.619106 
L 689.174519 135.668644 
" clip-path="url(#pf626c4477d)" style="fill: none; stroke: #6fa4ff; stroke-width: 2; stroke-linecap: square"/>
   </g>
   <g id="line2d_27">
    <path d="M 677.124982 274.701769 
L 689.174519 262.652231 
" clip-path="url(#pf626c4477d)" style="fill: none; stroke: #6fa4ff; stroke-width: 2; stroke-linecap: square"/>
   </g>
   <g id="line2d_28">
    <path d="M 677.124982 262.652231 
L 689.174519 274.701769 
" clip-path="url(#pf626c4477d)" style="fill: none; stroke: #6fa4ff; stroke-width: 2; stroke-linecap: square"/>
   </g>
   <g id="patch_24">
    <path d="M 267.007387 191.050172 
L 404.126489 191.050172 
L 404.126489 160.926328 
L 267.007387 160.926328 
z
" clip-path="url(#pf626c4477d)" style="fill: #bb8bff; stroke: #bb8bff; stroke-width: 1.5; stroke-linejoin: miter"/>
   </g>
   <g id="patch_25">
    <path d="M 482.710329 98.361422 
L 512.834172 98.361422 
L 512.834172 68.237578 
L 482.710329 68.237578 
z
" clip-path="url(#pf626c4477d)" style="fill: #6fa4ff; stroke: #6fa4ff; stroke-width: 1.5; stroke-linejoin: miter"/>
   </g>
   <g id="patch_26">
    <path d="M 544.116625 87.818077 
C 545.314966 87.818077 546.464387 87.341971 547.311742 86.494616 
C 548.159096 85.647261 548.635202 84.497841 548.635202 83.2995 
C 548.635202 82.101159 548.159096 80.951739 547.311742 80.104384 
C 546.464387 79.257029 545.314966 78.780923 544.116625 78.780923 
C 542.918285 78.780923 541.768864 79.257029 540.921509 80.104384 
C 540.074155 80.951739 539.598049 82.101159 539.598049 83.2995 
C 539.598049 84.497841 540.074155 85.647261 540.921509 86.494616 
C 541.768864 87.341971 542.918285 87.818077 544.116625 87.818077 
z
" clip-path="url(#pf626c4477d)" style="fill: #6fa4ff; stroke: #6fa4ff; stroke-width: 1.5; stroke-linejoin: miter"/>
   </g>
   <g id="patch_27">
    <path d="M 544.116625 140.18722 
C 546.912753 140.18722 549.594735 139.076307 551.571896 137.099146 
C 553.549057 135.121985 554.659971 132.440003 554.659971 129.643875 
C 554.659971 126.847747 553.549057 124.165765 551.571896 122.188604 
C 549.594735 120.211443 546.912753 119.10053 544.116625 119.10053 
C 541.320498 119.10053 538.638515 120.211443 536.661355 122.188604 
C 534.684194 124.165765 533.57328 126.847747 533.57328 129.643875 
C 533.57328 132.440003 534.684194 135.121985 536.661355 137.099146 
C 538.638515 139.076307 541.320498 140.18722 544.116625 140.18722 
z
" clip-path="url(#pf626c4477d)" style="fill: #6fa4ff; stroke: #6fa4ff; stroke-width: 2; stroke-linejoin: miter"/>
   </g>
   <g id="patch_28">
    <path d="M 729.494125 180.506827 
C 730.692466 180.506827 731.841887 180.030721 732.689242 179.183366 
C 733.536596 178.336011 734.012702 177.186591 734.012702 175.98825 
C 734.012702 174.789909 733.536596 173.640489 732.689242 172.793134 
C 731.841887 171.945779 730.692466 171.469673 729.494125 171.469673 
C 728.295785 171.469673 727.146364 171.945779 726.299009 172.793134 
C 725.451655 173.640489 724.975549 174.789909 724.975549 175.98825 
C 724.975549 177.186591 725.451655 178.336011 726.299009 179.183366 
C 727.146364 180.030721 728.295785 180.506827 729.494125 180.506827 
z
" clip-path="url(#pf626c4477d)" style="fill: #6fa4ff; stroke: #6fa4ff; stroke-width: 1.5; stroke-linejoin: miter"/>
   </g>
   <g id="patch_29">
    <path d="M 729.494125 232.87597 
C 732.290253 232.87597 734.972235 231.765057 736.949396 229.787896 
C 738.926557 227.810735 740.037471 225.128753 740.037471 222.332625 
C 740.037471 219.536497 738.926557 216.854515 736.949396 214.877354 
C 734.972235 212.900193 732.290253 211.78928 729.494125 211.78928 
C 726.697998 211.78928 724.016015 212.900193 722.038855 214.877354 
C 720.061694 216.854515 718.95078 219.536497 718.95078 222.332625 
C 718.95078 225.128753 720.061694 227.810735 722.038855 229.787896 
C 724.016015 231.765057 726.697998 232.87597 729.494125 232.87597 
z
" clip-path="url(#pf626c4477d)" style="fill: #6fa4ff; stroke: #6fa4ff; stroke-width: 2; stroke-linejoin: miter"/>
   </g>
   <g id="patch_30">
    <path d="M 760.776579 191.050172 
L 790.900422 191.050172 
L 790.900422 160.926328 
L 760.776579 160.926328 
z
" clip-path="url(#pf626c4477d)" style="fill: #6fa4ff; stroke: #6fa4ff; stroke-width: 1.5; stroke-linejoin: miter"/>
   </g>
   <g id="patch_31">
    <path d="M 853.465329 237.394547 
L 883.589172 237.394547 
L 883.589172 207.270703 
L 853.465329 207.270703 
z
" clip-path="url(#pf626c4477d)" style="stroke: #000000; stroke-width: 1.5; stroke-linejoin: miter"/>
   </g>
   <g id="patch_32">
    <path d="M 879.070596 226.851202 
C 879.070596 224.056005 877.959024 221.372433 875.982521 219.395931 
C 874.006019 217.419428 871.322447 216.307856 868.52725 216.307856 
C 865.732054 216.307856 863.048482 217.419428 861.07198 219.395931 
C 859.095477 221.372433 857.983905 224.056005 857.983905 226.851202 
" clip-path="url(#pf626c4477d)" style="fill: none; stroke: #ffffff; stroke-width: 2; stroke-linejoin: miter"/>
   </g>
   <g id="line2d_29">
    <path d="M 868.52725 226.851202 
L 879.070596 216.307856 
" clip-path="url(#pf626c4477d)" style="fill: none; stroke: #ffffff; stroke-width: 2; stroke-linecap: square"/>
   </g>
   <g id="patch_33">
    <path d="M 899.809704 191.050172 
L 929.933547 191.050172 
L 929.933547 160.926328 
L 899.809704 160.926328 
z
" clip-path="url(#pf626c4477d)" style="stroke: #000000; stroke-width: 1.5; stroke-linejoin: miter"/>
   </g>
   <g id="patch_34">
    <path d="M 925.414971 180.506827 
C 925.414971 177.71163 924.303399 175.028058 922.326896 173.051556 
C 920.350394 171.075053 917.666822 169.963481 914.871625 169.963481 
C 912.076429 169.963481 909.392857 171.075053 907.416355 173.051556 
C 905.439852 175.028058 904.32828 177.71163 904.32828 180.506827 
" clip-path="url(#pf626c4477d)" style="fill: none; stroke: #ffffff; stroke-width: 2; stroke-linejoin: miter"/>
   </g>
   <g id="line2d_30">
    <path d="M 914.871625 180.506827 
L 925.414971 169.963481 
" clip-path="url(#pf626c4477d)" style="fill: none; stroke: #ffffff; stroke-width: 2; stroke-linecap: square"/>
   </g>
   <g id="patch_35">
    <path d="M 1007.560375 319.539952 
C 1008.758716 319.539952 1009.908137 319.063846 1010.755492 318.216491 
C 1011.602846 317.369136 1012.078952 316.219716 1012.078952 315.021375 
C 1012.078952 313.823034 1011.602846 312.673614 1010.755492 311.826259 
C 1009.908137 310.978904 1008.758716 310.502798 1007.560375 310.502798 
C 1006.362035 310.502798 1005.212614 310.978904 1004.365259 311.826259 
C 1003.517905 312.673614 1003.041799 313.823034 1003.041799 315.021375 
C 1003.041799 316.219716 1003.517905 317.369136 1004.365259 318.216491 
C 1005.212614 319.063846 1006.362035 319.539952 1007.560375 319.539952 
z
" clip-path="url(#pf626c4477d)" style="stroke: #000000; stroke-width: 1.5; stroke-linejoin: miter"/>
   </g>
   <g id="patch_36">
    <path d="M 992.498454 283.738922 
L 1022.622297 283.738922 
L 1022.622297 253.615078 
L 992.498454 253.615078 
z
" clip-path="url(#pf626c4477d)" style="fill: #05bab6; stroke: #05bab6; stroke-width: 1.5; stroke-linejoin: miter"/>
   </g>
   <g id="patch_37">
    <path d="M 1053.90475 319.539952 
C 1055.103091 319.539952 1056.252512 319.063846 1057.099867 318.216491 
C 1057.947221 317.369136 1058.423327 316.219716 1058.423327 315.021375 
C 1058.423327 313.823034 1057.947221 312.673614 1057.099867 311.826259 
C 1056.252512 310.978904 1055.103091 310.502798 1053.90475 310.502798 
C 1052.70641 310.502798 1051.556989 310.978904 1050.709634 311.826259 
C 1049.86228 312.673614 1049.386174 313.823034 1049.386174 315.021375 
C 1049.386174 316.219716 1049.86228 317.369136 1050.709634 318.216491 
C 1051.556989 319.063846 1052.70641 319.539952 1053.90475 319.539952 
z
" clip-path="url(#pf626c4477d)" style="stroke: #000000; stroke-width: 1.5; stroke-linejoin: miter"/>
   </g>
   <g id="patch_38">
    <path d="M 1038.842829 283.738922 
L 1068.966672 283.738922 
L 1068.966672 253.615078 
L 1038.842829 253.615078 
z
" clip-path="url(#pf626c4477d)" style="fill: #05bab6; stroke: #05bab6; stroke-width: 1.5; stroke-linejoin: miter"/>
   </g>
   <g id="text_1">
    <g clip-path="url(#pf626c4477d)">
     <!-- ${anne}_{0}$ -->
     <g transform="translate(183.493038 87.783484)scale(0.1625 -0.1625)">
      <defs>
       <path id="DejaVuSans-Oblique-61" d="M 3438 1997 
L 3047 0 
L 2472 0 
L 2578 531 
Q 2325 219 2001 64 
Q 1678 -91 1281 -91 
Q 834 -91 548 182 
Q 263 456 263 884 
Q 263 1497 752 1853 
Q 1241 2209 2100 2209 
L 2900 2209 
L 2931 2363 
Q 2938 2388 2941 2417 
Q 2944 2447 2944 2509 
Q 2944 2788 2717 2942 
Q 2491 3097 2081 3097 
Q 1800 3097 1504 3025 
Q 1209 2953 897 2809 
L 997 3341 
Q 1322 3463 1633 3523 
Q 1944 3584 2234 3584 
Q 2853 3584 3176 3315 
Q 3500 3047 3500 2534 
Q 3500 2431 3484 2292 
Q 3469 2153 3438 1997 
z
M 2816 1759 
L 2241 1759 
Q 1534 1759 1195 1570 
Q 856 1381 856 984 
Q 856 709 1029 553 
Q 1203 397 1509 397 
Q 1978 397 2328 733 
Q 2678 1069 2791 1631 
L 2816 1759 
z
" transform="scale(0.015625)"/>
       <path id="DejaVuSans-Oblique-6e" d="M 3566 2113 
L 3156 0 
L 2578 0 
L 2988 2091 
Q 3016 2238 3031 2350 
Q 3047 2463 3047 2528 
Q 3047 2791 2881 2937 
Q 2716 3084 2419 3084 
Q 1956 3084 1622 2776 
Q 1288 2469 1184 1941 
L 800 0 
L 225 0 
L 903 3500 
L 1478 3500 
L 1363 2950 
Q 1603 3253 1940 3418 
Q 2278 3584 2650 3584 
Q 3113 3584 3367 3334 
Q 3622 3084 3622 2631 
Q 3622 2519 3608 2391 
Q 3594 2263 3566 2113 
z
" transform="scale(0.015625)"/>
       <path id="DejaVuSans-Oblique-65" d="M 3078 2063 
Q 3088 2113 3092 2166 
Q 3097 2219 3097 2272 
Q 3097 2653 2873 2875 
Q 2650 3097 2266 3097 
Q 1838 3097 1509 2826 
Q 1181 2556 1013 2059 
L 3078 2063 
z
M 3578 1613 
L 903 1613 
Q 884 1494 878 1425 
Q 872 1356 872 1306 
Q 872 872 1139 634 
Q 1406 397 1894 397 
Q 2269 397 2603 481 
Q 2938 566 3225 728 
L 3116 159 
Q 2806 34 2476 -28 
Q 2147 -91 1806 -91 
Q 1078 -91 686 257 
Q 294 606 294 1247 
Q 294 1794 489 2264 
Q 684 2734 1063 3103 
Q 1306 3334 1642 3459 
Q 1978 3584 2356 3584 
Q 2950 3584 3301 3228 
Q 3653 2872 3653 2272 
Q 3653 2128 3634 1964 
Q 3616 1800 3578 1613 
z
" transform="scale(0.015625)"/>
       <path id="DejaVuSans-30" d="M 2034 4250 
Q 1547 4250 1301 3770 
Q 1056 3291 1056 2328 
Q 1056 1369 1301 889 
Q 1547 409 2034 409 
Q 2525 409 2770 889 
Q 3016 1369 3016 2328 
Q 3016 3291 2770 3770 
Q 2525 4250 2034 4250 
z
M 2034 4750 
Q 2819 4750 3233 4129 
Q 3647 3509 3647 2328 
Q 3647 1150 3233 529 
Q 2819 -91 2034 -91 
Q 1250 -91 836 529 
Q 422 1150 422 2328 
Q 422 3509 836 4129 
Q 1250 4750 2034 4750 
z
" transform="scale(0.015625)"/>
      </defs>
      <use xlink:href="#DejaVuSans-Oblique-61"/>
      <use xlink:href="#DejaVuSans-Oblique-6e" transform="translate(61.279297 0)"/>
      <use xlink:href="#DejaVuSans-Oblique-6e" transform="translate(124.658203 0)"/>
      <use xlink:href="#DejaVuSans-Oblique-65" transform="translate(188.037109 0)"/>
      <use xlink:href="#DejaVuSans-30" transform="translate(249.560547 -16.40625)scale(0.7)"/>
     </g>
    </g>
   </g>
   <g id="text_2">
    <g clip-path="url(#pf626c4477d)">
     <!-- ${anne}_{1}$ -->
     <g transform="translate(183.493038 134.127859)scale(0.1625 -0.1625)">
      <defs>
       <path id="DejaVuSans-31" d="M 794 531 
L 1825 531 
L 1825 4091 
L 703 3866 
L 703 4441 
L 1819 4666 
L 2450 4666 
L 2450 531 
L 3481 531 
L 3481 0 
L 794 0 
L 794 531 
z
" transform="scale(0.015625)"/>
      </defs>
      <use xlink:href="#DejaVuSans-Oblique-61"/>
      <use xlink:href="#DejaVuSans-Oblique-6e" transform="translate(61.279297 0)"/>
      <use xlink:href="#DejaVuSans-Oblique-6e" transform="translate(124.658203 0)"/>
      <use xlink:href="#DejaVuSans-Oblique-65" transform="translate(188.037109 0)"/>
      <use xlink:href="#DejaVuSans-31" transform="translate(249.560547 -16.40625)scale(0.7)"/>
     </g>
    </g>
   </g>
   <g id="text_3">
    <g clip-path="url(#pf626c4477d)">
     <!-- ${bob}_{0}$ -->
     <g transform="translate(193.405538 180.472234)scale(0.1625 -0.1625)">
      <defs>
       <path id="DejaVuSans-Oblique-62" d="M 3169 2138 
Q 3169 2591 2961 2847 
Q 2753 3103 2388 3103 
Q 2122 3103 1889 2973 
Q 1656 2844 1484 2597 
Q 1303 2338 1198 1995 
Q 1094 1653 1094 1313 
Q 1094 881 1298 636 
Q 1503 391 1863 391 
Q 2134 391 2365 517 
Q 2597 644 2772 891 
Q 2950 1147 3059 1487 
Q 3169 1828 3169 2138 
z
M 1381 2969 
Q 1594 3256 1914 3420 
Q 2234 3584 2584 3584 
Q 3122 3584 3439 3221 
Q 3756 2859 3756 2241 
Q 3756 1734 3570 1259 
Q 3384 784 3041 416 
Q 2816 172 2522 40 
Q 2228 -91 1906 -91 
Q 1566 -91 1316 65 
Q 1066 222 909 531 
L 806 0 
L 231 0 
L 1178 4863 
L 1753 4863 
L 1381 2969 
z
" transform="scale(0.015625)"/>
       <path id="DejaVuSans-Oblique-6f" d="M 1625 -91 
Q 1009 -91 651 289 
Q 294 669 294 1325 
Q 294 1706 417 2101 
Q 541 2497 738 2766 
Q 1047 3184 1428 3384 
Q 1809 3584 2291 3584 
Q 2888 3584 3255 3212 
Q 3622 2841 3622 2241 
Q 3622 1825 3500 1412 
Q 3378 1000 3181 728 
Q 2875 309 2494 109 
Q 2113 -91 1625 -91 
z
M 891 1344 
Q 891 869 1089 633 
Q 1288 397 1691 397 
Q 2269 397 2648 901 
Q 3028 1406 3028 2181 
Q 3028 2634 2825 2865 
Q 2622 3097 2228 3097 
Q 1903 3097 1650 2945 
Q 1397 2794 1197 2484 
Q 1050 2253 970 1956 
Q 891 1659 891 1344 
z
" transform="scale(0.015625)"/>
      </defs>
      <use xlink:href="#DejaVuSans-Oblique-62" transform="translate(0 0.015625)"/>
      <use xlink:href="#DejaVuSans-Oblique-6f" transform="translate(63.476562 0.015625)"/>
      <use xlink:href="#DejaVuSans-Oblique-62" transform="translate(124.658203 0.015625)"/>
      <use xlink:href="#DejaVuSans-30" transform="translate(188.134766 -16.390625)scale(0.7)"/>
     </g>
    </g>
   </g>
   <g id="text_4">
    <g clip-path="url(#pf626c4477d)">
     <!-- ${bob}_{1}$ -->
     <g transform="translate(193.405538 226.816609)scale(0.1625 -0.1625)">
      <use xlink:href="#DejaVuSans-Oblique-62" transform="translate(0 0.015625)"/>
      <use xlink:href="#DejaVuSans-Oblique-6f" transform="translate(63.476562 0.015625)"/>
      <use xlink:href="#DejaVuSans-Oblique-62" transform="translate(124.658203 0.015625)"/>
      <use xlink:href="#DejaVuSans-31" transform="translate(188.134766 -16.390625)scale(0.7)"/>
     </g>
    </g>
   </g>
   <g id="text_5">
    <g clip-path="url(#pf626c4477d)">
     <!-- ${clara}$ -->
     <g transform="translate(191.618038 273.160984)scale(0.1625 -0.1625)">
      <defs>
       <path id="DejaVuSans-Oblique-63" d="M 3431 3366 
L 3316 2797 
Q 3109 2947 2876 3022 
Q 2644 3097 2394 3097 
Q 2119 3097 1870 3000 
Q 1622 2903 1453 2725 
Q 1184 2453 1037 2087 
Q 891 1722 891 1331 
Q 891 859 1127 628 
Q 1363 397 1844 397 
Q 2081 397 2348 469 
Q 2616 541 2906 684 
L 2797 116 
Q 2547 13 2283 -39 
Q 2019 -91 1741 -91 
Q 1044 -91 669 257 
Q 294 606 294 1253 
Q 294 1797 489 2255 
Q 684 2713 1069 3078 
Q 1331 3328 1684 3456 
Q 2038 3584 2456 3584 
Q 2700 3584 2940 3529 
Q 3181 3475 3431 3366 
z
" transform="scale(0.015625)"/>
       <path id="DejaVuSans-Oblique-6c" d="M 1172 4863 
L 1747 4863 
L 800 0 
L 225 0 
L 1172 4863 
z
" transform="scale(0.015625)"/>
       <path id="DejaVuSans-Oblique-72" d="M 2853 2969 
Q 2766 3016 2653 3041 
Q 2541 3066 2413 3066 
Q 1953 3066 1609 2717 
Q 1266 2369 1153 1784 
L 800 0 
L 225 0 
L 909 3500 
L 1484 3500 
L 1375 2956 
Q 1603 3259 1920 3421 
Q 2238 3584 2597 3584 
Q 2691 3584 2781 3573 
Q 2872 3563 2963 3538 
L 2853 2969 
z
" transform="scale(0.015625)"/>
      </defs>
      <use xlink:href="#DejaVuSans-Oblique-63" transform="translate(0 0.015625)"/>
      <use xlink:href="#DejaVuSans-Oblique-6c" transform="translate(54.980469 0.015625)"/>
      <use xlink:href="#DejaVuSans-Oblique-61" transform="translate(82.763672 0.015625)"/>
      <use xlink:href="#DejaVuSans-Oblique-72" transform="translate(144.042969 0.015625)"/>
      <use xlink:href="#DejaVuSans-Oblique-61" transform="translate(185.15625 0.015625)"/>
     </g>
    </g>
   </g>
   <g id="text_6">
    <g clip-path="url(#pf626c4477d)">
     <!-- 2 -->
     <g transform="translate(245.65885 308.224063)scale(0.104 -0.104)">
      <defs>
       <path id="DejaVuSans-32" d="M 1228 531 
L 3431 531 
L 3431 0 
L 469 0 
L 469 531 
Q 828 903 1448 1529 
Q 2069 2156 2228 2338 
Q 2531 2678 2651 2914 
Q 2772 3150 2772 3378 
Q 2772 3750 2511 3984 
Q 2250 4219 1831 4219 
Q 1534 4219 1204 4116 
Q 875 4013 500 3803 
L 500 4441 
Q 881 4594 1212 4672 
Q 1544 4750 1819 4750 
Q 2544 4750 2975 4387 
Q 3406 4025 3406 3419 
Q 3406 3131 3298 2873 
Q 3191 2616 2906 2266 
Q 2828 2175 2409 1742 
Q 1991 1309 1228 531 
z
" transform="scale(0.015625)"/>
      </defs>
      <use xlink:href="#DejaVuSans-32"/>
     </g>
    </g>
   </g>
   <g id="text_7">
    <g clip-path="url(#pf626c4477d)">
     <!-- c -->
     <g transform="translate(222.820577 319.505359)scale(0.1625 -0.1625)">
      <defs>
       <path id="DejaVuSans-63" d="M 3122 3366 
L 3122 2828 
Q 2878 2963 2633 3030 
Q 2388 3097 2138 3097 
Q 1578 3097 1268 2742 
Q 959 2388 959 1747 
Q 959 1106 1268 751 
Q 1578 397 2138 397 
Q 2388 397 2633 464 
Q 2878 531 3122 666 
L 3122 134 
Q 2881 22 2623 -34 
Q 2366 -91 2075 -91 
Q 1284 -91 818 406 
Q 353 903 353 1747 
Q 353 2603 823 3093 
Q 1294 3584 2113 3584 
Q 2378 3584 2631 3529 
Q 2884 3475 3122 3366 
z
" transform="scale(0.015625)"/>
      </defs>
      <use xlink:href="#DejaVuSans-63"/>
     </g>
    </g>
   </g>
   <g id="text_8">
    <g clip-path="url(#pf626c4477d)">
     <!-- $[-0.359-0.0578j, 0.73-0.578j]$ -->
     <g transform="translate(270.286938 187.225403)scale(0.08 -0.08)">
      <defs>
       <path id="DejaVuSans-5b" d="M 550 4863 
L 1875 4863 
L 1875 4416 
L 1125 4416 
L 1125 -397 
L 1875 -397 
L 1875 -844 
L 550 -844 
L 550 4863 
z
" transform="scale(0.015625)"/>
       <path id="DejaVuSans-2212" d="M 678 2272 
L 4684 2272 
L 4684 1741 
L 678 1741 
L 678 2272 
z
" transform="scale(0.015625)"/>
       <path id="DejaVuSans-2e" d="M 684 794 
L 1344 794 
L 1344 0 
L 684 0 
L 684 794 
z
" transform="scale(0.015625)"/>
       <path id="DejaVuSans-33" d="M 2597 2516 
Q 3050 2419 3304 2112 
Q 3559 1806 3559 1356 
Q 3559 666 3084 287 
Q 2609 -91 1734 -91 
Q 1441 -91 1130 -33 
Q 819 25 488 141 
L 488 750 
Q 750 597 1062 519 
Q 1375 441 1716 441 
Q 2309 441 2620 675 
Q 2931 909 2931 1356 
Q 2931 1769 2642 2001 
Q 2353 2234 1838 2234 
L 1294 2234 
L 1294 2753 
L 1863 2753 
Q 2328 2753 2575 2939 
Q 2822 3125 2822 3475 
Q 2822 3834 2567 4026 
Q 2313 4219 1838 4219 
Q 1578 4219 1281 4162 
Q 984 4106 628 3988 
L 628 4550 
Q 988 4650 1302 4700 
Q 1616 4750 1894 4750 
Q 2613 4750 3031 4423 
Q 3450 4097 3450 3541 
Q 3450 3153 3228 2886 
Q 3006 2619 2597 2516 
z
" transform="scale(0.015625)"/>
       <path id="DejaVuSans-35" d="M 691 4666 
L 3169 4666 
L 3169 4134 
L 1269 4134 
L 1269 2991 
Q 1406 3038 1543 3061 
Q 1681 3084 1819 3084 
Q 2600 3084 3056 2656 
Q 3513 2228 3513 1497 
Q 3513 744 3044 326 
Q 2575 -91 1722 -91 
Q 1428 -91 1123 -41 
Q 819 9 494 109 
L 494 744 
Q 775 591 1075 516 
Q 1375 441 1709 441 
Q 2250 441 2565 725 
Q 2881 1009 2881 1497 
Q 2881 1984 2565 2268 
Q 2250 2553 1709 2553 
Q 1456 2553 1204 2497 
Q 953 2441 691 2322 
L 691 4666 
z
" transform="scale(0.015625)"/>
       <path id="DejaVuSans-39" d="M 703 97 
L 703 672 
Q 941 559 1184 500 
Q 1428 441 1663 441 
Q 2288 441 2617 861 
Q 2947 1281 2994 2138 
Q 2813 1869 2534 1725 
Q 2256 1581 1919 1581 
Q 1219 1581 811 2004 
Q 403 2428 403 3163 
Q 403 3881 828 4315 
Q 1253 4750 1959 4750 
Q 2769 4750 3195 4129 
Q 3622 3509 3622 2328 
Q 3622 1225 3098 567 
Q 2575 -91 1691 -91 
Q 1453 -91 1209 -44 
Q 966 3 703 97 
z
M 1959 2075 
Q 2384 2075 2632 2365 
Q 2881 2656 2881 3163 
Q 2881 3666 2632 3958 
Q 2384 4250 1959 4250 
Q 1534 4250 1286 3958 
Q 1038 3666 1038 3163 
Q 1038 2656 1286 2365 
Q 1534 2075 1959 2075 
z
" transform="scale(0.015625)"/>
       <path id="DejaVuSans-37" d="M 525 4666 
L 3525 4666 
L 3525 4397 
L 1831 0 
L 1172 0 
L 2766 4134 
L 525 4134 
L 525 4666 
z
" transform="scale(0.015625)"/>
       <path id="DejaVuSans-38" d="M 2034 2216 
Q 1584 2216 1326 1975 
Q 1069 1734 1069 1313 
Q 1069 891 1326 650 
Q 1584 409 2034 409 
Q 2484 409 2743 651 
Q 3003 894 3003 1313 
Q 3003 1734 2745 1975 
Q 2488 2216 2034 2216 
z
M 1403 2484 
Q 997 2584 770 2862 
Q 544 3141 544 3541 
Q 544 4100 942 4425 
Q 1341 4750 2034 4750 
Q 2731 4750 3128 4425 
Q 3525 4100 3525 3541 
Q 3525 3141 3298 2862 
Q 3072 2584 2669 2484 
Q 3125 2378 3379 2068 
Q 3634 1759 3634 1313 
Q 3634 634 3220 271 
Q 2806 -91 2034 -91 
Q 1263 -91 848 271 
Q 434 634 434 1313 
Q 434 1759 690 2068 
Q 947 2378 1403 2484 
z
M 1172 3481 
Q 1172 3119 1398 2916 
Q 1625 2713 2034 2713 
Q 2441 2713 2670 2916 
Q 2900 3119 2900 3481 
Q 2900 3844 2670 4047 
Q 2441 4250 2034 4250 
Q 1625 4250 1398 4047 
Q 1172 3844 1172 3481 
z
" transform="scale(0.015625)"/>
       <path id="DejaVuSans-Oblique-6a" d="M 928 3500 
L 1503 3500 
L 813 -63 
L 809 -78 
Q 694 -675 544 -897 
Q 403 -1106 132 -1218 
Q -138 -1331 -506 -1331 
L -722 -1331 
L -628 -844 
L -481 -844 
Q -144 -844 -1 -703 
Q 141 -563 238 -63 
L 928 3500 
z
M 1197 4863 
L 1772 4863 
L 1631 4134 
L 1056 4134 
L 1197 4863 
z
" transform="scale(0.015625)"/>
       <path id="DejaVuSans-2c" d="M 750 794 
L 1409 794 
L 1409 256 
L 897 -744 
L 494 -744 
L 750 256 
L 750 794 
z
" transform="scale(0.015625)"/>
       <path id="DejaVuSans-5d" d="M 1947 4863 
L 1947 -844 
L 622 -844 
L 622 -397 
L 1369 -397 
L 1369 4416 
L 622 4416 
L 622 4863 
L 1947 4863 
z
" transform="scale(0.015625)"/>
      </defs>
      <use xlink:href="#DejaVuSans-5b" transform="translate(0 0.015625)"/>
      <use xlink:href="#DejaVuSans-2212" transform="translate(39.013672 0.015625)"/>
      <use xlink:href="#DejaVuSans-30" transform="translate(122.802734 0.015625)"/>
      <use xlink:href="#DejaVuSans-2e" transform="translate(186.425781 0.015625)"/>
      <use xlink:href="#DejaVuSans-33" transform="translate(218.212891 0.015625)"/>
      <use xlink:href="#DejaVuSans-35" transform="translate(281.835938 0.015625)"/>
      <use xlink:href="#DejaVuSans-39" transform="translate(339.958984 0.015625)"/>
      <use xlink:href="#DejaVuSans-2212" transform="translate(423.064453 0.015625)"/>
      <use xlink:href="#DejaVuSans-30" transform="translate(526.335938 0.015625)"/>
      <use xlink:href="#DejaVuSans-2e" transform="translate(589.958984 0.015625)"/>
      <use xlink:href="#DejaVuSans-30" transform="translate(621.746094 0.015625)"/>
      <use xlink:href="#DejaVuSans-35" transform="translate(685.369141 0.015625)"/>
      <use xlink:href="#DejaVuSans-37" transform="translate(741.742188 0.015625)"/>
      <use xlink:href="#DejaVuSans-38" transform="translate(805.365234 0.015625)"/>
      <use xlink:href="#DejaVuSans-Oblique-6a" transform="translate(868.988281 0.015625)"/>
      <use xlink:href="#DejaVuSans-2c" transform="translate(896.771484 0.015625)"/>
      <use xlink:href="#DejaVuSans-30" transform="translate(948.041016 0.015625)"/>
      <use xlink:href="#DejaVuSans-2e" transform="translate(1011.664062 0.015625)"/>
      <use xlink:href="#DejaVuSans-37" transform="translate(1035.701172 0.015625)"/>
      <use xlink:href="#DejaVuSans-33" transform="translate(1099.324219 0.015625)"/>
      <use xlink:href="#DejaVuSans-2212" transform="translate(1182.429688 0.015625)"/>
      <use xlink:href="#DejaVuSans-30" transform="translate(1285.701172 0.015625)"/>
      <use xlink:href="#DejaVuSans-2e" transform="translate(1349.324219 0.015625)"/>
      <use xlink:href="#DejaVuSans-35" transform="translate(1381.111328 0.015625)"/>
      <use xlink:href="#DejaVuSans-37" transform="translate(1437.484375 0.015625)"/>
      <use xlink:href="#DejaVuSans-38" transform="translate(1501.107422 0.015625)"/>
      <use xlink:href="#DejaVuSans-Oblique-6a" transform="translate(1564.730469 0.015625)"/>
      <use xlink:href="#DejaVuSans-5d" transform="translate(1592.513672 0.015625)"/>
     </g>
    </g>
   </g>
   <g id="text_9">
    <g clip-path="url(#pf626c4477d)">
     <!-- $|\psi\rangle$ -->
     <g transform="translate(326.531938 174.914673)scale(0.13 -0.13)">
      <defs>
       <path id="DejaVuSans-7c" d="M 1344 4891 
L 1344 -1509 
L 813 -1509 
L 813 4891 
L 1344 4891 
z
" transform="scale(0.015625)"/>
       <path id="DejaVuSans-Oblique-3c8" d="M 1591 -78 
Q 891 38 616 341 
Q 278 713 425 1472 
L 819 3500 
L 1400 3500 
L 1009 1494 
Q 900 922 1119 684 
Q 1313 478 1691 434 
L 2284 3500 
L 2856 3500 
L 2263 438 
Q 2681 481 2928 688 
Q 3247 950 3353 1497 
L 3741 3500 
L 4322 3500 
L 3928 1475 
Q 3775 688 3300 344 
Q 2872 34 2163 -75 
L 1919 -1331 
L 1347 -1331 
L 1591 -78 
z
" transform="scale(0.015625)"/>
       <path id="DejaVuSans-27e9" d="M 1925 2006 
L 1044 -844 
L 513 -844 
L 1394 2006 
L 513 4856 
L 1044 4856 
L 1925 2006 
z
" transform="scale(0.015625)"/>
      </defs>
      <use xlink:href="#DejaVuSans-7c" transform="translate(0 0.578125)"/>
      <use xlink:href="#DejaVuSans-Oblique-3c8" transform="translate(33.691406 0.578125)"/>
      <use xlink:href="#DejaVuSans-27e9" transform="translate(99.658203 0.578125)"/>
     </g>
    </g>
   </g>
   <g id="line2d_31">
    <path d="M 451.427875 60.127312 
L 451.427875 106.471687 
" clip-path="url(#pf626c4477d)" style="fill: none; stroke-dasharray: 3.7,1.6; stroke-dashoffset: 0; stroke: #000000"/>
   </g>
   <g id="line2d_32">
    <path d="M 451.427875 106.471687 
L 451.427875 152.816062 
" clip-path="url(#pf626c4477d)" style="fill: none; stroke-dasharray: 3.7,1.6; stroke-dashoffset: 0; stroke: #000000"/>
   </g>
   <g id="line2d_33">
    <path d="M 451.427875 152.816062 
L 451.427875 199.160437 
" clip-path="url(#pf626c4477d)" style="fill: none; stroke-dasharray: 3.7,1.6; stroke-dashoffset: 0; stroke: #000000"/>
   </g>
   <g id="line2d_34">
    <path d="M 451.427875 199.160437 
L 451.427875 245.504812 
" clip-path="url(#pf626c4477d)" style="fill: none; stroke-dasharray: 3.7,1.6; stroke-dashoffset: 0; stroke: #000000"/>
   </g>
   <g id="line2d_35">
    <path d="M 451.427875 245.504812 
L 451.427875 291.849187 
" clip-path="url(#pf626c4477d)" style="fill: none; stroke-dasharray: 3.7,1.6; stroke-dashoffset: 0; stroke: #000000"/>
   </g>
   <g id="text_10">
    <g clip-path="url(#pf626c4477d)">
     <!-- H -->
     <g transform="translate(492.884047 86.886687)scale(0.13 -0.13)">
      <defs>
       <path id="DejaVuSans-48" d="M 628 4666 
L 1259 4666 
L 1259 2753 
L 3553 2753 
L 3553 4666 
L 4184 4666 
L 4184 0 
L 3553 0 
L 3553 2222 
L 1259 2222 
L 1259 0 
L 628 0 
L 628 4666 
z
" transform="scale(0.015625)"/>
      </defs>
      <use xlink:href="#DejaVuSans-48"/>
     </g>
    </g>
   </g>
   <g id="line2d_36">
    <path d="M 544.116625 135.668644 
L 544.116625 123.619106 
" clip-path="url(#pf626c4477d)" style="fill: none; stroke: #ffffff; stroke-width: 2; stroke-linecap: square"/>
   </g>
   <g id="line2d_37">
    <path d="M 538.091857 129.643875 
L 550.141394 129.643875 
" clip-path="url(#pf626c4477d)" style="fill: none; stroke: #ffffff; stroke-width: 2; stroke-linecap: square"/>
   </g>
   <g id="line2d_38">
    <path d="M 590.461 60.127312 
L 590.461 106.471687 
" clip-path="url(#pf626c4477d)" style="fill: none; stroke-dasharray: 3.7,1.6; stroke-dashoffset: 0; stroke: #000000"/>
   </g>
   <g id="line2d_39">
    <path d="M 590.461 106.471687 
L 590.461 152.816062 
" clip-path="url(#pf626c4477d)" style="fill: none; stroke-dasharray: 3.7,1.6; stroke-dashoffset: 0; stroke: #000000"/>
   </g>
   <g id="line2d_40">
    <path d="M 590.461 152.816062 
L 590.461 199.160437 
" clip-path="url(#pf626c4477d)" style="fill: none; stroke-dasharray: 3.7,1.6; stroke-dashoffset: 0; stroke: #000000"/>
   </g>
   <g id="line2d_41">
    <path d="M 590.461 199.160437 
L 590.461 245.504812 
" clip-path="url(#pf626c4477d)" style="fill: none; stroke-dasharray: 3.7,1.6; stroke-dashoffset: 0; stroke: #000000"/>
   </g>
   <g id="line2d_42">
    <path d="M 590.461 245.504812 
L 590.461 291.849187 
" clip-path="url(#pf626c4477d)" style="fill: none; stroke-dasharray: 3.7,1.6; stroke-dashoffset: 0; stroke: #000000"/>
   </g>
   <g id="line2d_43">
    <path d="M 729.494125 228.357394 
L 729.494125 216.307856 
" clip-path="url(#pf626c4477d)" style="fill: none; stroke: #ffffff; stroke-width: 2; stroke-linecap: square"/>
   </g>
   <g id="line2d_44">
    <path d="M 723.469357 222.332625 
L 735.518894 222.332625 
" clip-path="url(#pf626c4477d)" style="fill: none; stroke: #ffffff; stroke-width: 2; stroke-linecap: square"/>
   </g>
   <g id="text_11">
    <g clip-path="url(#pf626c4477d)">
     <!-- H -->
     <g transform="translate(770.950297 179.575437)scale(0.13 -0.13)">
      <use xlink:href="#DejaVuSans-48"/>
     </g>
    </g>
   </g>
   <g id="line2d_45">
    <path d="M 822.182875 60.127312 
L 822.182875 106.471687 
" clip-path="url(#pf626c4477d)" style="fill: none; stroke-dasharray: 3.7,1.6; stroke-dashoffset: 0; stroke: #000000"/>
   </g>
   <g id="line2d_46">
    <path d="M 822.182875 106.471687 
L 822.182875 152.816062 
" clip-path="url(#pf626c4477d)" style="fill: none; stroke-dasharray: 3.7,1.6; stroke-dashoffset: 0; stroke: #000000"/>
   </g>
   <g id="line2d_47">
    <path d="M 822.182875 152.816062 
L 822.182875 199.160437 
" clip-path="url(#pf626c4477d)" style="fill: none; stroke-dasharray: 3.7,1.6; stroke-dashoffset: 0; stroke: #000000"/>
   </g>
   <g id="line2d_48">
    <path d="M 822.182875 199.160437 
L 822.182875 245.504812 
" clip-path="url(#pf626c4477d)" style="fill: none; stroke-dasharray: 3.7,1.6; stroke-dashoffset: 0; stroke: #000000"/>
   </g>
   <g id="line2d_49">
    <path d="M 822.182875 245.504812 
L 822.182875 291.849187 
" clip-path="url(#pf626c4477d)" style="fill: none; stroke-dasharray: 3.7,1.6; stroke-dashoffset: 0; stroke: #000000"/>
   </g>
   <g id="text_12">
    <g clip-path="url(#pf626c4477d)">
     <!-- 1 -->
     <g transform="translate(880.113344 308.224063)scale(0.104 -0.104)">
      <use xlink:href="#DejaVuSans-31"/>
     </g>
    </g>
   </g>
   <g id="text_13">
    <g clip-path="url(#pf626c4477d)">
     <!-- 0 -->
     <g transform="translate(926.457719 308.224063)scale(0.104 -0.104)">
      <use xlink:href="#DejaVuSans-30"/>
     </g>
    </g>
   </g>
   <g id="line2d_50">
    <path d="M 961.216 60.127312 
L 961.216 106.471687 
" clip-path="url(#pf626c4477d)" style="fill: none; stroke-dasharray: 3.7,1.6; stroke-dashoffset: 0; stroke: #000000"/>
   </g>
   <g id="line2d_51">
    <path d="M 961.216 106.471687 
L 961.216 152.816062 
" clip-path="url(#pf626c4477d)" style="fill: none; stroke-dasharray: 3.7,1.6; stroke-dashoffset: 0; stroke: #000000"/>
   </g>
   <g id="line2d_52">
    <path d="M 961.216 152.816062 
L 961.216 199.160437 
" clip-path="url(#pf626c4477d)" style="fill: none; stroke-dasharray: 3.7,1.6; stroke-dashoffset: 0; stroke: #000000"/>
   </g>
   <g id="line2d_53">
    <path d="M 961.216 199.160437 
L 961.216 245.504812 
" clip-path="url(#pf626c4477d)" style="fill: none; stroke-dasharray: 3.7,1.6; stroke-dashoffset: 0; stroke: #000000"/>
   </g>
   <g id="line2d_54">
    <path d="M 961.216 245.504812 
L 961.216 291.849187 
" clip-path="url(#pf626c4477d)" style="fill: none; stroke-dasharray: 3.7,1.6; stroke-dashoffset: 0; stroke: #000000"/>
   </g>
   <g id="text_14">
    <g clip-path="url(#pf626c4477d)">
     <!-- c_1=0x1 -->
     <g transform="translate(990.006625 329.996028)scale(0.08 -0.08)">
      <defs>
       <path id="DejaVuSans-5f" d="M 3263 -1063 
L 3263 -1509 
L -63 -1509 
L -63 -1063 
L 3263 -1063 
z
" transform="scale(0.015625)"/>
       <path id="DejaVuSans-3d" d="M 678 2906 
L 4684 2906 
L 4684 2381 
L 678 2381 
L 678 2906 
z
M 678 1631 
L 4684 1631 
L 4684 1100 
L 678 1100 
L 678 1631 
z
" transform="scale(0.015625)"/>
       <path id="DejaVuSans-78" d="M 3513 3500 
L 2247 1797 
L 3578 0 
L 2900 0 
L 1881 1375 
L 863 0 
L 184 0 
L 1544 1831 
L 300 3500 
L 978 3500 
L 1906 2253 
L 2834 3500 
L 3513 3500 
z
" transform="scale(0.015625)"/>
      </defs>
      <use xlink:href="#DejaVuSans-63"/>
      <use xlink:href="#DejaVuSans-5f" x="54.980469"/>
      <use xlink:href="#DejaVuSans-31" x="104.980469"/>
      <use xlink:href="#DejaVuSans-3d" x="168.603516"/>
      <use xlink:href="#DejaVuSans-30" x="252.392578"/>
      <use xlink:href="#DejaVuSans-78" x="316.015625"/>
      <use xlink:href="#DejaVuSans-31" x="375.195312"/>
     </g>
    </g>
   </g>
   <g id="text_15">
    <g clip-path="url(#pf626c4477d)">
     <!-- X -->
     <g transform="translate(1003.107875 272.264187)scale(0.13 -0.13)">
      <defs>
       <path id="DejaVuSans-58" d="M 403 4666 
L 1081 4666 
L 2241 2931 
L 3406 4666 
L 4084 4666 
L 2584 2425 
L 4184 0 
L 3506 0 
L 2194 1984 
L 872 0 
L 191 0 
L 1856 2491 
L 403 4666 
z
" transform="scale(0.015625)"/>
      </defs>
      <use xlink:href="#DejaVuSans-58"/>
     </g>
    </g>
   </g>
   <g id="text_16">
    <g clip-path="url(#pf626c4477d)">
     <!-- c_0=0x1 -->
     <g transform="translate(1036.351 329.996028)scale(0.08 -0.08)">
      <use xlink:href="#DejaVuSans-63"/>
      <use xlink:href="#DejaVuSans-5f" x="54.980469"/>
      <use xlink:href="#DejaVuSans-30" x="104.980469"/>
      <use xlink:href="#DejaVuSans-3d" x="168.603516"/>
      <use xlink:href="#DejaVuSans-30" x="252.392578"/>
      <use xlink:href="#DejaVuSans-78" x="316.015625"/>
      <use xlink:href="#DejaVuSans-31" x="375.195312"/>
     </g>
    </g>
   </g>
   <g id="text_17">
    <g clip-path="url(#pf626c4477d)">
     <!-- Z -->
     <g transform="translate(1049.45225 272.264187)scale(0.13 -0.13)">
      <defs>
       <path id="DejaVuSans-5a" d="M 359 4666 
L 4025 4666 
L 4025 4184 
L 1075 531 
L 4097 531 
L 4097 0 
L 288 0 
L 288 481 
L 3238 4134 
L 359 4134 
L 359 4666 
z
" transform="scale(0.015625)"/>
      </defs>
      <use xlink:href="#DejaVuSans-5a"/>
     </g>
    </g>
   </g>
  </g>
 </g>
 <defs>
  <clipPath id="pf626c4477d">
   <rect x="153.871962" y="46.224" width="930.620076" height="296.604"/>
  </clipPath>
 </defs>
</svg>
