<?xml version="1.0" encoding="utf-8" standalone="no"?>
<!DOCTYPE svg PUBLIC "-//W3C//DTD SVG 1.1//EN"
  "http://www.w3.org/Graphics/SVG/1.1/DTD/svg11.dtd">
<svg xmlns:xlink="http://www.w3.org/1999/xlink" width="1148.4pt" height="385.2pt" viewBox="0 0 1148.4 385.2" xmlns="http://www.w3.org/2000/svg" version="1.1">
 <metadata>
  <rdf:RDF xmlns:dc="http://purl.org/dc/elements/1.1/" xmlns:cc="http://creativecommons.org/ns#" xmlns:rdf="http://www.w3.org/1999/02/22-rdf-syntax-ns#">
   <cc:Work>
    <dc:type rdf:resource="http://purl.org/dc/dcmitype/StillImage"/>
    <dc:date>2022-03-09T15:49:22.185247</dc:date>
    <dc:format>image/svg+xml</dc:format>
    <dc:creator>
     <cc:Agent>
      <dc:title>Matplotlib v3.5.1, https://matplotlib.org/</dc:title>
     </cc:Agent>
    </dc:creator>
   </cc:Work>
  </rdf:RDF>
 </metadata>
 <defs>
  <style type="text/css">*{stroke-linejoin: round; stroke-linecap: butt}</style>
 </defs>
 <g id="figure_1">
  <g id="patch_1">
   <path d="M 0 385.2 
L 1148.4 385.2 
L 1148.4 0 
L 0 0 
z
" style="fill: #ffffff"/>
  </g>
  <g id="axes_1">
   <g id="patch_2">
    <path d="M 808.703294 304.47803 
L 820.752832 304.47803 
L 814.728063 313.1676 
z
" clip-path="url(#p99fe419516)" style="fill: #778899"/>
   </g>
   <g id="patch_3">
    <path d="M 855.047669 304.47803 
L 867.097207 304.47803 
L 861.072438 313.1676 
z
" clip-path="url(#p99fe419516)" style="fill: #778899"/>
   </g>
   <g id="line2d_1">
    <path d="M 233.5696 83.2995 
L 1026.058413 83.2995 
" clip-path="url(#p99fe419516)" style="fill: none; stroke: #000000; stroke-width: 2; stroke-linecap: square"/>
   </g>
   <g id="line2d_2">
    <path d="M 233.5696 129.643875 
L 1026.058413 129.643875 
" clip-path="url(#p99fe419516)" style="fill: none; stroke: #000000; stroke-width: 2; stroke-linecap: square"/>
   </g>
   <g id="line2d_3">
    <path d="M 233.5696 175.98825 
L 1026.058413 175.98825 
" clip-path="url(#p99fe419516)" style="fill: none; stroke: #000000; stroke-width: 2; stroke-linecap: square"/>
   </g>
   <g id="line2d_4">
    <path d="M 233.5696 222.332625 
L 1026.058413 222.332625 
" clip-path="url(#p99fe419516)" style="fill: none; stroke: #000000; stroke-width: 2; stroke-linecap: square"/>
   </g>
   <g id="line2d_5">
    <path d="M 233.5696 268.677 
L 1026.058413 268.677 
" clip-path="url(#p99fe419516)" style="fill: none; stroke: #000000; stroke-width: 2; stroke-linecap: square"/>
   </g>
   <g id="line2d_6">
    <path d="M 233.5696 313.515183 
L 1026.058413 313.515183 
" clip-path="url(#p99fe419516)" style="fill: none; stroke: #778899; stroke-width: 2; stroke-linecap: square"/>
   </g>
   <g id="line2d_7">
    <path d="M 233.5696 316.527567 
L 1026.058413 316.527567 
" clip-path="url(#p99fe419516)" style="fill: none; stroke: #778899; stroke-width: 2; stroke-linecap: square"/>
   </g>
   <g id="line2d_8">
    <path d="M 242.838475 319.655812 
L 247.472913 310.386937 
" clip-path="url(#p99fe419516)" style="fill: none; stroke: #778899; stroke-width: 1.5; stroke-linecap: square"/>
   </g>
   <g id="patch_4">
    <path d="M 388.591535 106.471687 
L 406.665841 106.471687 
L 406.665841 60.127312 
L 388.591535 60.127312 
z
" clip-path="url(#p99fe419516)" style="fill: #bdbdbd; opacity: 0.6"/>
   </g>
   <g id="patch_5">
    <path d="M 388.591535 152.816062 
L 406.665841 152.816062 
L 406.665841 106.471687 
L 388.591535 106.471687 
z
" clip-path="url(#p99fe419516)" style="fill: #bdbdbd; opacity: 0.6"/>
   </g>
   <g id="patch_6">
    <path d="M 388.591535 199.160437 
L 406.665841 199.160437 
L 406.665841 152.816062 
L 388.591535 152.816062 
z
" clip-path="url(#p99fe419516)" style="fill: #bdbdbd; opacity: 0.6"/>
   </g>
   <g id="patch_7">
    <path d="M 388.591535 245.504812 
L 406.665841 245.504812 
L 406.665841 199.160437 
L 388.591535 199.160437 
z
" clip-path="url(#p99fe419516)" style="fill: #bdbdbd; opacity: 0.6"/>
   </g>
   <g id="patch_8">
    <path d="M 388.591535 291.849187 
L 406.665841 291.849187 
L 406.665841 245.504812 
L 388.591535 245.504812 
z
" clip-path="url(#p99fe419516)" style="fill: #bdbdbd; opacity: 0.6"/>
   </g>
   <g id="line2d_9">
    <path d="M 490.317438 129.643875 
L 490.317438 83.2995 
" clip-path="url(#p99fe419516)" style="fill: none; stroke: #6fa4ff; stroke-width: 2; stroke-linecap: square"/>
   </g>
   <g id="patch_9">
    <path d="M 527.62466 106.471687 
L 545.698966 106.471687 
L 545.698966 60.127312 
L 527.62466 60.127312 
z
" clip-path="url(#p99fe419516)" style="fill: #bdbdbd; opacity: 0.6"/>
   </g>
   <g id="patch_10">
    <path d="M 527.62466 152.816062 
L 545.698966 152.816062 
L 545.698966 106.471687 
L 527.62466 106.471687 
z
" clip-path="url(#p99fe419516)" style="fill: #bdbdbd; opacity: 0.6"/>
   </g>
   <g id="patch_11">
    <path d="M 527.62466 199.160437 
L 545.698966 199.160437 
L 545.698966 152.816062 
L 527.62466 152.816062 
z
" clip-path="url(#p99fe419516)" style="fill: #bdbdbd; opacity: 0.6"/>
   </g>
   <g id="patch_12">
    <path d="M 527.62466 245.504812 
L 545.698966 245.504812 
L 545.698966 199.160437 
L 527.62466 199.160437 
z
" clip-path="url(#p99fe419516)" style="fill: #bdbdbd; opacity: 0.6"/>
   </g>
   <g id="patch_13">
    <path d="M 527.62466 291.849187 
L 545.698966 291.849187 
L 545.698966 245.504812 
L 527.62466 245.504812 
z
" clip-path="url(#p99fe419516)" style="fill: #bdbdbd; opacity: 0.6"/>
   </g>
   <g id="line2d_10">
    <path d="M 583.006188 83.2995 
L 583.006188 222.332625 
" clip-path="url(#p99fe419516)" style="fill: none; stroke: #6fa4ff; stroke-width: 2; stroke-linecap: square"/>
   </g>
   <g id="line2d_11">
    <path d="M 629.350563 129.643875 
L 629.350563 268.677 
" clip-path="url(#p99fe419516)" style="fill: none; stroke: #6fa4ff; stroke-width: 2; stroke-linecap: square"/>
   </g>
   <g id="line2d_12">
    <path d="M 675.694938 222.332625 
L 675.694938 175.98825 
" clip-path="url(#p99fe419516)" style="fill: none; stroke: #6fa4ff; stroke-width: 2; stroke-linecap: square"/>
   </g>
   <g id="patch_14">
    <path d="M 759.346535 106.471687 
L 777.420841 106.471687 
L 777.420841 60.127312 
L 759.346535 60.127312 
z
" clip-path="url(#p99fe419516)" style="fill: #bdbdbd; opacity: 0.6"/>
   </g>
   <g id="patch_15">
    <path d="M 759.346535 152.816062 
L 777.420841 152.816062 
L 777.420841 106.471687 
L 759.346535 106.471687 
z
" clip-path="url(#p99fe419516)" style="fill: #bdbdbd; opacity: 0.6"/>
   </g>
   <g id="patch_16">
    <path d="M 759.346535 199.160437 
L 777.420841 199.160437 
L 777.420841 152.816062 
L 759.346535 152.816062 
z
" clip-path="url(#p99fe419516)" style="fill: #bdbdbd; opacity: 0.6"/>
   </g>
   <g id="patch_17">
    <path d="M 759.346535 245.504812 
L 777.420841 245.504812 
L 777.420841 199.160437 
L 759.346535 199.160437 
z
" clip-path="url(#p99fe419516)" style="fill: #bdbdbd; opacity: 0.6"/>
   </g>
   <g id="patch_18">
    <path d="M 759.346535 291.849187 
L 777.420841 291.849187 
L 777.420841 245.504812 
L 759.346535 245.504812 
z
" clip-path="url(#p99fe419516)" style="fill: #bdbdbd; opacity: 0.6"/>
   </g>
   <g id="line2d_13">
    <path d="M 816.234255 222.332625 
L 816.234255 304.47803 
" clip-path="url(#p99fe419516)" style="fill: none; stroke: #778899; stroke-width: 2; stroke-linecap: square"/>
   </g>
   <g id="line2d_14">
    <path d="M 813.221871 222.332625 
L 813.221871 304.47803 
" clip-path="url(#p99fe419516)" style="fill: none; stroke: #778899; stroke-width: 2; stroke-linecap: square"/>
   </g>
   <g id="line2d_15">
    <path d="M 862.57863 175.98825 
L 862.57863 304.47803 
" clip-path="url(#p99fe419516)" style="fill: none; stroke: #778899; stroke-width: 2; stroke-linecap: square"/>
   </g>
   <g id="line2d_16">
    <path d="M 859.566246 175.98825 
L 859.566246 304.47803 
" clip-path="url(#p99fe419516)" style="fill: none; stroke: #778899; stroke-width: 2; stroke-linecap: square"/>
   </g>
   <g id="patch_19">
    <path d="M 898.37966 106.471687 
L 916.453966 106.471687 
L 916.453966 60.127312 
L 898.37966 60.127312 
z
" clip-path="url(#p99fe419516)" style="fill: #bdbdbd; opacity: 0.6"/>
   </g>
   <g id="patch_20">
    <path d="M 898.37966 152.816062 
L 916.453966 152.816062 
L 916.453966 106.471687 
L 898.37966 106.471687 
z
" clip-path="url(#p99fe419516)" style="fill: #bdbdbd; opacity: 0.6"/>
   </g>
   <g id="patch_21">
    <path d="M 898.37966 199.160437 
L 916.453966 199.160437 
L 916.453966 152.816062 
L 898.37966 152.816062 
z
" clip-path="url(#p99fe419516)" style="fill: #bdbdbd; opacity: 0.6"/>
   </g>
   <g id="patch_22">
    <path d="M 898.37966 245.504812 
L 916.453966 245.504812 
L 916.453966 199.160437 
L 898.37966 199.160437 
z
" clip-path="url(#p99fe419516)" style="fill: #bdbdbd; opacity: 0.6"/>
   </g>
   <g id="patch_23">
    <path d="M 898.37966 291.849187 
L 916.453966 291.849187 
L 916.453966 245.504812 
L 898.37966 245.504812 
z
" clip-path="url(#p99fe419516)" style="fill: #bdbdbd; opacity: 0.6"/>
   </g>
   <g id="line2d_17">
    <path d="M 955.26738 268.677 
L 955.26738 315.021375 
" clip-path="url(#p99fe419516)" style="fill: none; stroke: #778899; stroke-width: 2; stroke-linecap: square"/>
   </g>
   <g id="line2d_18">
    <path d="M 952.254996 268.677 
L 952.254996 315.021375 
" clip-path="url(#p99fe419516)" style="fill: none; stroke: #778899; stroke-width: 2; stroke-linecap: square"/>
   </g>
   <g id="line2d_19">
    <path d="M 1001.611755 268.677 
L 1001.611755 315.021375 
" clip-path="url(#p99fe419516)" style="fill: none; stroke: #778899; stroke-width: 2; stroke-linecap: square"/>
   </g>
   <g id="line2d_20">
    <path d="M 998.599371 268.677 
L 998.599371 315.021375 
" clip-path="url(#p99fe419516)" style="fill: none; stroke: #778899; stroke-width: 2; stroke-linecap: square"/>
   </g>
   <g id="line2d_21">
    <path d="M 576.981419 89.324269 
L 589.030957 77.274731 
" clip-path="url(#p99fe419516)" style="fill: none; stroke: #6fa4ff; stroke-width: 2; stroke-linecap: square"/>
   </g>
   <g id="line2d_22">
    <path d="M 576.981419 77.274731 
L 589.030957 89.324269 
" clip-path="url(#p99fe419516)" style="fill: none; stroke: #6fa4ff; stroke-width: 2; stroke-linecap: square"/>
   </g>
   <g id="line2d_23">
    <path d="M 576.981419 228.357394 
L 589.030957 216.307856 
" clip-path="url(#p99fe419516)" style="fill: none; stroke: #6fa4ff; stroke-width: 2; stroke-linecap: square"/>
   </g>
   <g id="line2d_24">
    <path d="M 576.981419 216.307856 
L 589.030957 228.357394 
" clip-path="url(#p99fe419516)" style="fill: none; stroke: #6fa4ff; stroke-width: 2; stroke-linecap: square"/>
   </g>
   <g id="line2d_25">
    <path d="M 623.325794 135.668644 
L 635.375332 123.619106 
" clip-path="url(#p99fe419516)" style="fill: none; stroke: #6fa4ff; stroke-width: 2; stroke-linecap: square"/>
   </g>
   <g id="line2d_26">
    <path d="M 623.325794 123.619106 
L 635.375332 135.668644 
" clip-path="url(#p99fe419516)" style="fill: none; stroke: #6fa4ff; stroke-width: 2; stroke-linecap: square"/>
   </g>
   <g id="line2d_27">
    <path d="M 623.325794 274.701769 
L 635.375332 262.652231 
" clip-path="url(#p99fe419516)" style="fill: none; stroke: #6fa4ff; stroke-width: 2; stroke-linecap: square"/>
   </g>
   <g id="line2d_28">
    <path d="M 623.325794 262.652231 
L 635.375332 274.701769 
" clip-path="url(#p99fe419516)" style="fill: none; stroke: #6fa4ff; stroke-width: 2; stroke-linecap: square"/>
   </g>
   <g id="patch_24">
    <path d="M 241.740114 191.050172 
L 368.139762 191.050172 
L 368.139762 160.926328 
L 241.740114 160.926328 
z
" clip-path="url(#p99fe419516)" style="fill: #bb8bff; stroke: #bb8bff; stroke-width: 1.5; stroke-linejoin: miter"/>
   </g>
   <g id="patch_25">
    <path d="M 428.911141 98.361422 
L 459.034985 98.361422 
L 459.034985 68.237578 
L 428.911141 68.237578 
z
" clip-path="url(#p99fe419516)" style="fill: #6fa4ff; stroke: #6fa4ff; stroke-width: 1.5; stroke-linejoin: miter"/>
   </g>
   <g id="patch_26">
    <path d="M 490.317438 87.818077 
C 491.515778 87.818077 492.665199 87.341971 493.512554 86.494616 
C 494.359909 85.647261 494.836015 84.497841 494.836015 83.2995 
C 494.836015 82.101159 494.359909 80.951739 493.512554 80.104384 
C 492.665199 79.257029 491.515778 78.780923 490.317438 78.780923 
C 489.119097 78.780923 487.969677 79.257029 487.122322 80.104384 
C 486.274967 80.951739 485.798861 82.101159 485.798861 83.2995 
C 485.798861 84.497841 486.274967 85.647261 487.122322 86.494616 
C 487.969677 87.341971 489.119097 87.818077 490.317438 87.818077 
z
" clip-path="url(#p99fe419516)" style="fill: #6fa4ff; stroke: #6fa4ff; stroke-width: 1.5; stroke-linejoin: miter"/>
   </g>
   <g id="patch_27">
    <path d="M 490.317438 140.18722 
C 493.113566 140.18722 495.795548 139.076307 497.772709 137.099146 
C 499.74987 135.121985 500.860783 132.440003 500.860783 129.643875 
C 500.860783 126.847747 499.74987 124.165765 497.772709 122.188604 
C 495.795548 120.211443 493.113566 119.10053 490.317438 119.10053 
C 487.52131 119.10053 484.839328 120.211443 482.862167 122.188604 
C 480.885006 124.165765 479.774093 126.847747 479.774093 129.643875 
C 479.774093 132.440003 480.885006 135.121985 482.862167 137.099146 
C 484.839328 139.076307 487.52131 140.18722 490.317438 140.18722 
z
" clip-path="url(#p99fe419516)" style="fill: #6fa4ff; stroke: #6fa4ff; stroke-width: 2; stroke-linejoin: miter"/>
   </g>
   <g id="patch_28">
    <path d="M 675.694938 180.506827 
C 676.893278 180.506827 678.042699 180.030721 678.890054 179.183366 
C 679.737409 178.336011 680.213515 177.186591 680.213515 175.98825 
C 680.213515 174.789909 679.737409 173.640489 678.890054 172.793134 
C 678.042699 171.945779 676.893278 171.469673 675.694938 171.469673 
C 674.496597 171.469673 673.347177 171.945779 672.499822 172.793134 
C 671.652467 173.640489 671.176361 174.789909 671.176361 175.98825 
C 671.176361 177.186591 671.652467 178.336011 672.499822 179.183366 
C 673.347177 180.030721 674.496597 180.506827 675.694938 180.506827 
z
" clip-path="url(#p99fe419516)" style="fill: #6fa4ff; stroke: #6fa4ff; stroke-width: 1.5; stroke-linejoin: miter"/>
   </g>
   <g id="patch_29">
    <path d="M 675.694938 232.87597 
C 678.491066 232.87597 681.173048 231.765057 683.150209 229.787896 
C 685.12737 227.810735 686.238283 225.128753 686.238283 222.332625 
C 686.238283 219.536497 685.12737 216.854515 683.150209 214.877354 
C 681.173048 212.900193 678.491066 211.78928 675.694938 211.78928 
C 672.89881 211.78928 670.216828 212.900193 668.239667 214.877354 
C 666.262506 216.854515 665.151593 219.536497 665.151593 222.332625 
C 665.151593 225.128753 666.262506 227.810735 668.239667 229.787896 
C 670.216828 231.765057 672.89881 232.87597 675.694938 232.87597 
z
" clip-path="url(#p99fe419516)" style="fill: #6fa4ff; stroke: #6fa4ff; stroke-width: 2; stroke-linejoin: miter"/>
   </g>
   <g id="patch_30">
    <path d="M 706.977391 191.050172 
L 737.101235 191.050172 
L 737.101235 160.926328 
L 706.977391 160.926328 
z
" clip-path="url(#p99fe419516)" style="fill: #6fa4ff; stroke: #6fa4ff; stroke-width: 1.5; stroke-linejoin: miter"/>
   </g>
   <g id="patch_31">
    <path d="M 799.666141 237.394547 
L 829.789985 237.394547 
L 829.789985 207.270703 
L 799.666141 207.270703 
z
" clip-path="url(#p99fe419516)" style="stroke: #000000; stroke-width: 1.5; stroke-linejoin: miter"/>
   </g>
   <g id="patch_32">
    <path d="M 825.271408 226.851202 
C 825.271408 224.056005 824.159836 221.372433 822.183334 219.395931 
C 820.206831 217.419428 817.52326 216.307856 814.728063 216.307856 
C 811.932866 216.307856 809.249294 217.419428 807.272792 219.395931 
C 805.29629 221.372433 804.184718 224.056005 804.184718 226.851202 
" clip-path="url(#p99fe419516)" style="fill: none; stroke: #ffffff; stroke-width: 2; stroke-linejoin: miter"/>
   </g>
   <g id="line2d_29">
    <path d="M 814.728063 226.851202 
L 825.271408 216.307856 
" clip-path="url(#p99fe419516)" style="fill: none; stroke: #ffffff; stroke-width: 2; stroke-linecap: square"/>
   </g>
   <g id="patch_33">
    <path d="M 846.010516 191.050172 
L 876.13436 191.050172 
L 876.13436 160.926328 
L 846.010516 160.926328 
z
" clip-path="url(#p99fe419516)" style="stroke: #000000; stroke-width: 1.5; stroke-linejoin: miter"/>
   </g>
   <g id="patch_34">
    <path d="M 871.615783 180.506827 
C 871.615783 177.71163 870.504211 175.028058 868.527709 173.051556 
C 866.551206 171.075053 863.867635 169.963481 861.072438 169.963481 
C 858.277241 169.963481 855.593669 171.075053 853.617167 173.051556 
C 851.640665 175.028058 850.529093 177.71163 850.529093 180.506827 
" clip-path="url(#p99fe419516)" style="fill: none; stroke: #ffffff; stroke-width: 2; stroke-linejoin: miter"/>
   </g>
   <g id="line2d_30">
    <path d="M 861.072438 180.506827 
L 871.615783 169.963481 
" clip-path="url(#p99fe419516)" style="fill: none; stroke: #ffffff; stroke-width: 2; stroke-linecap: square"/>
   </g>
   <g id="patch_35">
    <path d="M 953.761188 319.539952 
C 954.959528 319.539952 956.108949 319.063846 956.956304 318.216491 
C 957.803659 317.369136 958.279765 316.219716 958.279765 315.021375 
C 958.279765 313.823034 957.803659 312.673614 956.956304 311.826259 
C 956.108949 310.978904 954.959528 310.502798 953.761188 310.502798 
C 952.562847 310.502798 951.413427 310.978904 950.566072 311.826259 
C 949.718717 312.673614 949.242611 313.823034 949.242611 315.021375 
C 949.242611 316.219716 949.718717 317.369136 950.566072 318.216491 
C 951.413427 319.063846 952.562847 319.539952 953.761188 319.539952 
z
" clip-path="url(#p99fe419516)" style="stroke: #000000; stroke-width: 1.5; stroke-linejoin: miter"/>
   </g>
   <g id="patch_36">
    <path d="M 938.699266 283.738922 
L 968.82311 283.738922 
L 968.82311 253.615078 
L 938.699266 253.615078 
z
" clip-path="url(#p99fe419516)" style="fill: #05bab6; stroke: #05bab6; stroke-width: 1.5; stroke-linejoin: miter"/>
   </g>
   <g id="patch_37">
    <path d="M 1000.105563 319.539952 
C 1001.303903 319.539952 1002.453324 319.063846 1003.300679 318.216491 
C 1004.148034 317.369136 1004.62414 316.219716 1004.62414 315.021375 
C 1004.62414 313.823034 1004.148034 312.673614 1003.300679 311.826259 
C 1002.453324 310.978904 1001.303903 310.502798 1000.105563 310.502798 
C 998.907222 310.502798 997.757802 310.978904 996.910447 311.826259 
C 996.063092 312.673614 995.586986 313.823034 995.586986 315.021375 
C 995.586986 316.219716 996.063092 317.369136 996.910447 318.216491 
C 997.757802 319.063846 998.907222 319.539952 1000.105563 319.539952 
z
" clip-path="url(#p99fe419516)" style="stroke: #000000; stroke-width: 1.5; stroke-linejoin: miter"/>
   </g>
   <g id="patch_38">
    <path d="M 985.043641 283.738922 
L 1015.167485 283.738922 
L 1015.167485 253.615078 
L 985.043641 253.615078 
z
" clip-path="url(#p99fe419516)" style="fill: #05bab6; stroke: #05bab6; stroke-width: 1.5; stroke-linejoin: miter"/>
   </g>
   <g id="text_1">
    <g clip-path="url(#p99fe419516)">
     <!-- ${anne}_{0}$ -->
     <g transform="translate(176.038225 87.783484)scale(0.1625 -0.1625)">
      <defs>
       <path id="DejaVuSans-Oblique-61" d="M 3438 1997 
L 3047 0 
L 2472 0 
L 2578 531 
Q 2325 219 2001 64 
Q 1678 -91 1281 -91 
Q 834 -91 548 182 
Q 263 456 263 884 
Q 263 1497 752 1853 
Q 1241 2209 2100 2209 
L 2900 2209 
L 2931 2363 
Q 2938 2388 2941 2417 
Q 2944 2447 2944 2509 
Q 2944 2788 2717 2942 
Q 2491 3097 2081 3097 
Q 1800 3097 1504 3025 
Q 1209 2953 897 2809 
L 997 3341 
Q 1322 3463 1633 3523 
Q 1944 3584 2234 3584 
Q 2853 3584 3176 3315 
Q 3500 3047 3500 2534 
Q 3500 2431 3484 2292 
Q 3469 2153 3438 1997 
z
M 2816 1759 
L 2241 1759 
Q 1534 1759 1195 1570 
Q 856 1381 856 984 
Q 856 709 1029 553 
Q 1203 397 1509 397 
Q 1978 397 2328 733 
Q 2678 1069 2791 1631 
L 2816 1759 
z
" transform="scale(0.015625)"/>
       <path id="DejaVuSans-Oblique-6e" d="M 3566 2113 
L 3156 0 
L 2578 0 
L 2988 2091 
Q 3016 2238 3031 2350 
Q 3047 2463 3047 2528 
Q 3047 2791 2881 2937 
Q 2716 3084 2419 3084 
Q 1956 3084 1622 2776 
Q 1288 2469 1184 1941 
L 800 0 
L 225 0 
L 903 3500 
L 1478 3500 
L 1363 2950 
Q 1603 3253 1940 3418 
Q 2278 3584 2650 3584 
Q 3113 3584 3367 3334 
Q 3622 3084 3622 2631 
Q 3622 2519 3608 2391 
Q 3594 2263 3566 2113 
z
" transform="scale(0.015625)"/>
       <path id="DejaVuSans-Oblique-65" d="M 3078 2063 
Q 3088 2113 3092 2166 
Q 3097 2219 3097 2272 
Q 3097 2653 2873 2875 
Q 2650 3097 2266 3097 
Q 1838 3097 1509 2826 
Q 1181 2556 1013 2059 
L 3078 2063 
z
M 3578 1613 
L 903 1613 
Q 884 1494 878 1425 
Q 872 1356 872 1306 
Q 872 872 1139 634 
Q 1406 397 1894 397 
Q 2269 397 2603 481 
Q 2938 566 3225 728 
L 3116 159 
Q 2806 34 2476 -28 
Q 2147 -91 1806 -91 
Q 1078 -91 686 257 
Q 294 606 294 1247 
Q 294 1794 489 2264 
Q 684 2734 1063 3103 
Q 1306 3334 1642 3459 
Q 1978 3584 2356 3584 
Q 2950 3584 3301 3228 
Q 3653 2872 3653 2272 
Q 3653 2128 3634 1964 
Q 3616 1800 3578 1613 
z
" transform="scale(0.015625)"/>
       <path id="DejaVuSans-30" d="M 2034 4250 
Q 1547 4250 1301 3770 
Q 1056 3291 1056 2328 
Q 1056 1369 1301 889 
Q 1547 409 2034 409 
Q 2525 409 2770 889 
Q 3016 1369 3016 2328 
Q 3016 3291 2770 3770 
Q 2525 4250 2034 4250 
z
M 2034 4750 
Q 2819 4750 3233 4129 
Q 3647 3509 3647 2328 
Q 3647 1150 3233 529 
Q 2819 -91 2034 -91 
Q 1250 -91 836 529 
Q 422 1150 422 2328 
Q 422 3509 836 4129 
Q 1250 4750 2034 4750 
z
" transform="scale(0.015625)"/>
      </defs>
      <use xlink:href="#DejaVuSans-Oblique-61"/>
      <use xlink:href="#DejaVuSans-Oblique-6e" transform="translate(61.279297 0)"/>
      <use xlink:href="#DejaVuSans-Oblique-6e" transform="translate(124.658203 0)"/>
      <use xlink:href="#DejaVuSans-Oblique-65" transform="translate(188.037109 0)"/>
      <use xlink:href="#DejaVuSans-30" transform="translate(249.560547 -16.40625)scale(0.7)"/>
     </g>
    </g>
   </g>
   <g id="text_2">
    <g clip-path="url(#p99fe419516)">
     <!-- ${anne}_{1}$ -->
     <g transform="translate(176.038225 134.127859)scale(0.1625 -0.1625)">
      <defs>
       <path id="DejaVuSans-31" d="M 794 531 
L 1825 531 
L 1825 4091 
L 703 3866 
L 703 4441 
L 1819 4666 
L 2450 4666 
L 2450 531 
L 3481 531 
L 3481 0 
L 794 0 
L 794 531 
z
" transform="scale(0.015625)"/>
      </defs>
      <use xlink:href="#DejaVuSans-Oblique-61"/>
      <use xlink:href="#DejaVuSans-Oblique-6e" transform="translate(61.279297 0)"/>
      <use xlink:href="#DejaVuSans-Oblique-6e" transform="translate(124.658203 0)"/>
      <use xlink:href="#DejaVuSans-Oblique-65" transform="translate(188.037109 0)"/>
      <use xlink:href="#DejaVuSans-31" transform="translate(249.560547 -16.40625)scale(0.7)"/>
     </g>
    </g>
   </g>
   <g id="text_3">
    <g clip-path="url(#p99fe419516)">
     <!-- ${bob}_{0}$ -->
     <g transform="translate(185.950725 180.472234)scale(0.1625 -0.1625)">
      <defs>
       <path id="DejaVuSans-Oblique-62" d="M 3169 2138 
Q 3169 2591 2961 2847 
Q 2753 3103 2388 3103 
Q 2122 3103 1889 2973 
Q 1656 2844 1484 2597 
Q 1303 2338 1198 1995 
Q 1094 1653 1094 1313 
Q 1094 881 1298 636 
Q 1503 391 1863 391 
Q 2134 391 2365 517 
Q 2597 644 2772 891 
Q 2950 1147 3059 1487 
Q 3169 1828 3169 2138 
z
M 1381 2969 
Q 1594 3256 1914 3420 
Q 2234 3584 2584 3584 
Q 3122 3584 3439 3221 
Q 3756 2859 3756 2241 
Q 3756 1734 3570 1259 
Q 3384 784 3041 416 
Q 2816 172 2522 40 
Q 2228 -91 1906 -91 
Q 1566 -91 1316 65 
Q 1066 222 909 531 
L 806 0 
L 231 0 
L 1178 4863 
L 1753 4863 
L 1381 2969 
z
" transform="scale(0.015625)"/>
       <path id="DejaVuSans-Oblique-6f" d="M 1625 -91 
Q 1009 -91 651 289 
Q 294 669 294 1325 
Q 294 1706 417 2101 
Q 541 2497 738 2766 
Q 1047 3184 1428 3384 
Q 1809 3584 2291 3584 
Q 2888 3584 3255 3212 
Q 3622 2841 3622 2241 
Q 3622 1825 3500 1412 
Q 3378 1000 3181 728 
Q 2875 309 2494 109 
Q 2113 -91 1625 -91 
z
M 891 1344 
Q 891 869 1089 633 
Q 1288 397 1691 397 
Q 2269 397 2648 901 
Q 3028 1406 3028 2181 
Q 3028 2634 2825 2865 
Q 2622 3097 2228 3097 
Q 1903 3097 1650 2945 
Q 1397 2794 1197 2484 
Q 1050 2253 970 1956 
Q 891 1659 891 1344 
z
" transform="scale(0.015625)"/>
      </defs>
      <use xlink:href="#DejaVuSans-Oblique-62" transform="translate(0 0.015625)"/>
      <use xlink:href="#DejaVuSans-Oblique-6f" transform="translate(63.476562 0.015625)"/>
      <use xlink:href="#DejaVuSans-Oblique-62" transform="translate(124.658203 0.015625)"/>
      <use xlink:href="#DejaVuSans-30" transform="translate(188.134766 -16.390625)scale(0.7)"/>
     </g>
    </g>
   </g>
   <g id="text_4">
    <g clip-path="url(#p99fe419516)">
     <!-- ${bob}_{1}$ -->
     <g transform="translate(185.950725 226.816609)scale(0.1625 -0.1625)">
      <use xlink:href="#DejaVuSans-Oblique-62" transform="translate(0 0.015625)"/>
      <use xlink:href="#DejaVuSans-Oblique-6f" transform="translate(63.476562 0.015625)"/>
      <use xlink:href="#DejaVuSans-Oblique-62" transform="translate(124.658203 0.015625)"/>
      <use xlink:href="#DejaVuSans-31" transform="translate(188.134766 -16.390625)scale(0.7)"/>
     </g>
    </g>
   </g>
   <g id="text_5">
    <g clip-path="url(#p99fe419516)">
     <!-- ${clara}$ -->
     <g transform="translate(184.163225 273.160984)scale(0.1625 -0.1625)">
      <defs>
       <path id="DejaVuSans-Oblique-63" d="M 3431 3366 
L 3316 2797 
Q 3109 2947 2876 3022 
Q 2644 3097 2394 3097 
Q 2119 3097 1870 3000 
Q 1622 2903 1453 2725 
Q 1184 2453 1037 2087 
Q 891 1722 891 1331 
Q 891 859 1127 628 
Q 1363 397 1844 397 
Q 2081 397 2348 469 
Q 2616 541 2906 684 
L 2797 116 
Q 2547 13 2283 -39 
Q 2019 -91 1741 -91 
Q 1044 -91 669 257 
Q 294 606 294 1253 
Q 294 1797 489 2255 
Q 684 2713 1069 3078 
Q 1331 3328 1684 3456 
Q 2038 3584 2456 3584 
Q 2700 3584 2940 3529 
Q 3181 3475 3431 3366 
z
" transform="scale(0.015625)"/>
       <path id="DejaVuSans-Oblique-6c" d="M 1172 4863 
L 1747 4863 
L 800 0 
L 225 0 
L 1172 4863 
z
" transform="scale(0.015625)"/>
       <path id="DejaVuSans-Oblique-72" d="M 2853 2969 
Q 2766 3016 2653 3041 
Q 2541 3066 2413 3066 
Q 1953 3066 1609 2717 
Q 1266 2369 1153 1784 
L 800 0 
L 225 0 
L 909 3500 
L 1484 3500 
L 1375 2956 
Q 1603 3259 1920 3421 
Q 2238 3584 2597 3584 
Q 2691 3584 2781 3573 
Q 2872 3563 2963 3538 
L 2853 2969 
z
" transform="scale(0.015625)"/>
      </defs>
      <use xlink:href="#DejaVuSans-Oblique-63" transform="translate(0 0.015625)"/>
      <use xlink:href="#DejaVuSans-Oblique-6c" transform="translate(54.980469 0.015625)"/>
      <use xlink:href="#DejaVuSans-Oblique-61" transform="translate(82.763672 0.015625)"/>
      <use xlink:href="#DejaVuSans-Oblique-72" transform="translate(144.042969 0.015625)"/>
      <use xlink:href="#DejaVuSans-Oblique-61" transform="translate(185.15625 0.015625)"/>
     </g>
    </g>
   </g>
   <g id="text_6">
    <g clip-path="url(#p99fe419516)">
     <!-- 2 -->
     <g transform="translate(238.204038 308.224063)scale(0.104 -0.104)">
      <defs>
       <path id="DejaVuSans-32" d="M 1228 531 
L 3431 531 
L 3431 0 
L 469 0 
L 469 531 
Q 828 903 1448 1529 
Q 2069 2156 2228 2338 
Q 2531 2678 2651 2914 
Q 2772 3150 2772 3378 
Q 2772 3750 2511 3984 
Q 2250 4219 1831 4219 
Q 1534 4219 1204 4116 
Q 875 4013 500 3803 
L 500 4441 
Q 881 4594 1212 4672 
Q 1544 4750 1819 4750 
Q 2544 4750 2975 4387 
Q 3406 4025 3406 3419 
Q 3406 3131 3298 2873 
Q 3191 2616 2906 2266 
Q 2828 2175 2409 1742 
Q 1991 1309 1228 531 
z
" transform="scale(0.015625)"/>
      </defs>
      <use xlink:href="#DejaVuSans-32"/>
     </g>
    </g>
   </g>
   <g id="text_7">
    <g clip-path="url(#p99fe419516)">
     <!-- c -->
     <g transform="translate(215.365765 319.505359)scale(0.1625 -0.1625)">
      <defs>
       <path id="DejaVuSans-63" d="M 3122 3366 
L 3122 2828 
Q 2878 2963 2633 3030 
Q 2388 3097 2138 3097 
Q 1578 3097 1268 2742 
Q 959 2388 959 1747 
Q 959 1106 1268 751 
Q 1578 397 2138 397 
Q 2388 397 2633 464 
Q 2878 531 3122 666 
L 3122 134 
Q 2881 22 2623 -34 
Q 2366 -91 2075 -91 
Q 1284 -91 818 406 
Q 353 903 353 1747 
Q 353 2603 823 3093 
Q 1294 3584 2113 3584 
Q 2378 3584 2631 3529 
Q 2884 3475 3122 3366 
z
" transform="scale(0.015625)"/>
      </defs>
      <use xlink:href="#DejaVuSans-63"/>
     </g>
    </g>
   </g>
   <g id="text_8">
    <g clip-path="url(#p99fe419516)">
     <!-- $[0.27+0.434j, -0.85-0.128j]$ -->
     <g transform="translate(242.419938 187.225403)scale(0.08 -0.08)">
      <defs>
       <path id="DejaVuSans-5b" d="M 550 4863 
L 1875 4863 
L 1875 4416 
L 1125 4416 
L 1125 -397 
L 1875 -397 
L 1875 -844 
L 550 -844 
L 550 4863 
z
" transform="scale(0.015625)"/>
       <path id="DejaVuSans-2e" d="M 684 794 
L 1344 794 
L 1344 0 
L 684 0 
L 684 794 
z
" transform="scale(0.015625)"/>
       <path id="DejaVuSans-37" d="M 525 4666 
L 3525 4666 
L 3525 4397 
L 1831 0 
L 1172 0 
L 2766 4134 
L 525 4134 
L 525 4666 
z
" transform="scale(0.015625)"/>
       <path id="DejaVuSans-2b" d="M 2944 4013 
L 2944 2272 
L 4684 2272 
L 4684 1741 
L 2944 1741 
L 2944 0 
L 2419 0 
L 2419 1741 
L 678 1741 
L 678 2272 
L 2419 2272 
L 2419 4013 
L 2944 4013 
z
" transform="scale(0.015625)"/>
       <path id="DejaVuSans-34" d="M 2419 4116 
L 825 1625 
L 2419 1625 
L 2419 4116 
z
M 2253 4666 
L 3047 4666 
L 3047 1625 
L 3713 1625 
L 3713 1100 
L 3047 1100 
L 3047 0 
L 2419 0 
L 2419 1100 
L 313 1100 
L 313 1709 
L 2253 4666 
z
" transform="scale(0.015625)"/>
       <path id="DejaVuSans-33" d="M 2597 2516 
Q 3050 2419 3304 2112 
Q 3559 1806 3559 1356 
Q 3559 666 3084 287 
Q 2609 -91 1734 -91 
Q 1441 -91 1130 -33 
Q 819 25 488 141 
L 488 750 
Q 750 597 1062 519 
Q 1375 441 1716 441 
Q 2309 441 2620 675 
Q 2931 909 2931 1356 
Q 2931 1769 2642 2001 
Q 2353 2234 1838 2234 
L 1294 2234 
L 1294 2753 
L 1863 2753 
Q 2328 2753 2575 2939 
Q 2822 3125 2822 3475 
Q 2822 3834 2567 4026 
Q 2313 4219 1838 4219 
Q 1578 4219 1281 4162 
Q 984 4106 628 3988 
L 628 4550 
Q 988 4650 1302 4700 
Q 1616 4750 1894 4750 
Q 2613 4750 3031 4423 
Q 3450 4097 3450 3541 
Q 3450 3153 3228 2886 
Q 3006 2619 2597 2516 
z
" transform="scale(0.015625)"/>
       <path id="DejaVuSans-Oblique-6a" d="M 928 3500 
L 1503 3500 
L 813 -63 
L 809 -78 
Q 694 -675 544 -897 
Q 403 -1106 132 -1218 
Q -138 -1331 -506 -1331 
L -722 -1331 
L -628 -844 
L -481 -844 
Q -144 -844 -1 -703 
Q 141 -563 238 -63 
L 928 3500 
z
M 1197 4863 
L 1772 4863 
L 1631 4134 
L 1056 4134 
L 1197 4863 
z
" transform="scale(0.015625)"/>
       <path id="DejaVuSans-2c" d="M 750 794 
L 1409 794 
L 1409 256 
L 897 -744 
L 494 -744 
L 750 256 
L 750 794 
z
" transform="scale(0.015625)"/>
       <path id="DejaVuSans-2212" d="M 678 2272 
L 4684 2272 
L 4684 1741 
L 678 1741 
L 678 2272 
z
" transform="scale(0.015625)"/>
       <path id="DejaVuSans-38" d="M 2034 2216 
Q 1584 2216 1326 1975 
Q 1069 1734 1069 1313 
Q 1069 891 1326 650 
Q 1584 409 2034 409 
Q 2484 409 2743 651 
Q 3003 894 3003 1313 
Q 3003 1734 2745 1975 
Q 2488 2216 2034 2216 
z
M 1403 2484 
Q 997 2584 770 2862 
Q 544 3141 544 3541 
Q 544 4100 942 4425 
Q 1341 4750 2034 4750 
Q 2731 4750 3128 4425 
Q 3525 4100 3525 3541 
Q 3525 3141 3298 2862 
Q 3072 2584 2669 2484 
Q 3125 2378 3379 2068 
Q 3634 1759 3634 1313 
Q 3634 634 3220 271 
Q 2806 -91 2034 -91 
Q 1263 -91 848 271 
Q 434 634 434 1313 
Q 434 1759 690 2068 
Q 947 2378 1403 2484 
z
M 1172 3481 
Q 1172 3119 1398 2916 
Q 1625 2713 2034 2713 
Q 2441 2713 2670 2916 
Q 2900 3119 2900 3481 
Q 2900 3844 2670 4047 
Q 2441 4250 2034 4250 
Q 1625 4250 1398 4047 
Q 1172 3844 1172 3481 
z
" transform="scale(0.015625)"/>
       <path id="DejaVuSans-35" d="M 691 4666 
L 3169 4666 
L 3169 4134 
L 1269 4134 
L 1269 2991 
Q 1406 3038 1543 3061 
Q 1681 3084 1819 3084 
Q 2600 3084 3056 2656 
Q 3513 2228 3513 1497 
Q 3513 744 3044 326 
Q 2575 -91 1722 -91 
Q 1428 -91 1123 -41 
Q 819 9 494 109 
L 494 744 
Q 775 591 1075 516 
Q 1375 441 1709 441 
Q 2250 441 2565 725 
Q 2881 1009 2881 1497 
Q 2881 1984 2565 2268 
Q 2250 2553 1709 2553 
Q 1456 2553 1204 2497 
Q 953 2441 691 2322 
L 691 4666 
z
" transform="scale(0.015625)"/>
       <path id="DejaVuSans-5d" d="M 1947 4863 
L 1947 -844 
L 622 -844 
L 622 -397 
L 1369 -397 
L 1369 4416 
L 622 4416 
L 622 4863 
L 1947 4863 
z
" transform="scale(0.015625)"/>
      </defs>
      <use xlink:href="#DejaVuSans-5b" transform="translate(0 0.015625)"/>
      <use xlink:href="#DejaVuSans-30" transform="translate(39.013672 0.015625)"/>
      <use xlink:href="#DejaVuSans-2e" transform="translate(102.636719 0.015625)"/>
      <use xlink:href="#DejaVuSans-32" transform="translate(128.923828 0.015625)"/>
      <use xlink:href="#DejaVuSans-37" transform="translate(192.546875 0.015625)"/>
      <use xlink:href="#DejaVuSans-2b" transform="translate(275.652344 0.015625)"/>
      <use xlink:href="#DejaVuSans-30" transform="translate(378.923828 0.015625)"/>
      <use xlink:href="#DejaVuSans-2e" transform="translate(442.546875 0.015625)"/>
      <use xlink:href="#DejaVuSans-34" transform="translate(474.333984 0.015625)"/>
      <use xlink:href="#DejaVuSans-33" transform="translate(537.957031 0.015625)"/>
      <use xlink:href="#DejaVuSans-34" transform="translate(601.580078 0.015625)"/>
      <use xlink:href="#DejaVuSans-Oblique-6a" transform="translate(665.203125 0.015625)"/>
      <use xlink:href="#DejaVuSans-2c" transform="translate(692.986328 0.015625)"/>
      <use xlink:href="#DejaVuSans-2212" transform="translate(763.738281 0.015625)"/>
      <use xlink:href="#DejaVuSans-30" transform="translate(867.009766 0.015625)"/>
      <use xlink:href="#DejaVuSans-2e" transform="translate(930.632812 0.015625)"/>
      <use xlink:href="#DejaVuSans-38" transform="translate(959.794922 0.015625)"/>
      <use xlink:href="#DejaVuSans-35" transform="translate(1023.417969 0.015625)"/>
      <use xlink:href="#DejaVuSans-2212" transform="translate(1106.523438 0.015625)"/>
      <use xlink:href="#DejaVuSans-30" transform="translate(1209.794922 0.015625)"/>
      <use xlink:href="#DejaVuSans-2e" transform="translate(1273.417969 0.015625)"/>
      <use xlink:href="#DejaVuSans-31" transform="translate(1305.205078 0.015625)"/>
      <use xlink:href="#DejaVuSans-32" transform="translate(1368.828125 0.015625)"/>
      <use xlink:href="#DejaVuSans-38" transform="translate(1432.451172 0.015625)"/>
      <use xlink:href="#DejaVuSans-Oblique-6a" transform="translate(1496.074219 0.015625)"/>
      <use xlink:href="#DejaVuSans-5d" transform="translate(1523.857422 0.015625)"/>
     </g>
    </g>
   </g>
   <g id="text_9">
    <g clip-path="url(#p99fe419516)">
     <!-- $|\psi\rangle$ -->
     <g transform="translate(295.904938 174.914673)scale(0.13 -0.13)">
      <defs>
       <path id="DejaVuSans-7c" d="M 1344 4891 
L 1344 -1509 
L 813 -1509 
L 813 4891 
L 1344 4891 
z
" transform="scale(0.015625)"/>
       <path id="DejaVuSans-Oblique-3c8" d="M 1591 -78 
Q 891 38 616 341 
Q 278 713 425 1472 
L 819 3500 
L 1400 3500 
L 1009 1494 
Q 900 922 1119 684 
Q 1313 478 1691 434 
L 2284 3500 
L 2856 3500 
L 2263 438 
Q 2681 481 2928 688 
Q 3247 950 3353 1497 
L 3741 3500 
L 4322 3500 
L 3928 1475 
Q 3775 688 3300 344 
Q 2872 34 2163 -75 
L 1919 -1331 
L 1347 -1331 
L 1591 -78 
z
" transform="scale(0.015625)"/>
       <path id="DejaVuSans-27e9" d="M 1925 2006 
L 1044 -844 
L 513 -844 
L 1394 2006 
L 513 4856 
L 1044 4856 
L 1925 2006 
z
" transform="scale(0.015625)"/>
      </defs>
      <use xlink:href="#DejaVuSans-7c" transform="translate(0 0.578125)"/>
      <use xlink:href="#DejaVuSans-Oblique-3c8" transform="translate(33.691406 0.578125)"/>
      <use xlink:href="#DejaVuSans-27e9" transform="translate(99.658203 0.578125)"/>
     </g>
    </g>
   </g>
   <g id="line2d_31">
    <path d="M 397.628688 60.127312 
L 397.628688 106.471687 
" clip-path="url(#p99fe419516)" style="fill: none; stroke-dasharray: 3.7,1.6; stroke-dashoffset: 0; stroke: #000000"/>
   </g>
   <g id="line2d_32">
    <path d="M 397.628688 106.471687 
L 397.628688 152.816062 
" clip-path="url(#p99fe419516)" style="fill: none; stroke-dasharray: 3.7,1.6; stroke-dashoffset: 0; stroke: #000000"/>
   </g>
   <g id="line2d_33">
    <path d="M 397.628688 152.816062 
L 397.628688 199.160437 
" clip-path="url(#p99fe419516)" style="fill: none; stroke-dasharray: 3.7,1.6; stroke-dashoffset: 0; stroke: #000000"/>
   </g>
   <g id="line2d_34">
    <path d="M 397.628688 199.160437 
L 397.628688 245.504812 
" clip-path="url(#p99fe419516)" style="fill: none; stroke-dasharray: 3.7,1.6; stroke-dashoffset: 0; stroke: #000000"/>
   </g>
   <g id="line2d_35">
    <path d="M 397.628688 245.504812 
L 397.628688 291.849187 
" clip-path="url(#p99fe419516)" style="fill: none; stroke-dasharray: 3.7,1.6; stroke-dashoffset: 0; stroke: #000000"/>
   </g>
   <g id="text_10">
    <g clip-path="url(#p99fe419516)">
     <!-- H -->
     <g transform="translate(439.08486 86.886687)scale(0.13 -0.13)">
      <defs>
       <path id="DejaVuSans-48" d="M 628 4666 
L 1259 4666 
L 1259 2753 
L 3553 2753 
L 3553 4666 
L 4184 4666 
L 4184 0 
L 3553 0 
L 3553 2222 
L 1259 2222 
L 1259 0 
L 628 0 
L 628 4666 
z
" transform="scale(0.015625)"/>
      </defs>
      <use xlink:href="#DejaVuSans-48"/>
     </g>
    </g>
   </g>
   <g id="line2d_36">
    <path d="M 490.317438 135.668644 
L 490.317438 123.619106 
" clip-path="url(#p99fe419516)" style="fill: none; stroke: #ffffff; stroke-width: 2; stroke-linecap: square"/>
   </g>
   <g id="line2d_37">
    <path d="M 484.292669 129.643875 
L 496.342207 129.643875 
" clip-path="url(#p99fe419516)" style="fill: none; stroke: #ffffff; stroke-width: 2; stroke-linecap: square"/>
   </g>
   <g id="line2d_38">
    <path d="M 536.661813 60.127312 
L 536.661813 106.471687 
" clip-path="url(#p99fe419516)" style="fill: none; stroke-dasharray: 3.7,1.6; stroke-dashoffset: 0; stroke: #000000"/>
   </g>
   <g id="line2d_39">
    <path d="M 536.661813 106.471687 
L 536.661813 152.816062 
" clip-path="url(#p99fe419516)" style="fill: none; stroke-dasharray: 3.7,1.6; stroke-dashoffset: 0; stroke: #000000"/>
   </g>
   <g id="line2d_40">
    <path d="M 536.661813 152.816062 
L 536.661813 199.160437 
" clip-path="url(#p99fe419516)" style="fill: none; stroke-dasharray: 3.7,1.6; stroke-dashoffset: 0; stroke: #000000"/>
   </g>
   <g id="line2d_41">
    <path d="M 536.661813 199.160437 
L 536.661813 245.504812 
" clip-path="url(#p99fe419516)" style="fill: none; stroke-dasharray: 3.7,1.6; stroke-dashoffset: 0; stroke: #000000"/>
   </g>
   <g id="line2d_42">
    <path d="M 536.661813 245.504812 
L 536.661813 291.849187 
" clip-path="url(#p99fe419516)" style="fill: none; stroke-dasharray: 3.7,1.6; stroke-dashoffset: 0; stroke: #000000"/>
   </g>
   <g id="line2d_43">
    <path d="M 675.694938 228.357394 
L 675.694938 216.307856 
" clip-path="url(#p99fe419516)" style="fill: none; stroke: #ffffff; stroke-width: 2; stroke-linecap: square"/>
   </g>
   <g id="line2d_44">
    <path d="M 669.670169 222.332625 
L 681.719707 222.332625 
" clip-path="url(#p99fe419516)" style="fill: none; stroke: #ffffff; stroke-width: 2; stroke-linecap: square"/>
   </g>
   <g id="text_11">
    <g clip-path="url(#p99fe419516)">
     <!-- H -->
     <g transform="translate(717.15111 179.575437)scale(0.13 -0.13)">
      <use xlink:href="#DejaVuSans-48"/>
     </g>
    </g>
   </g>
   <g id="line2d_45">
    <path d="M 768.383688 60.127312 
L 768.383688 106.471687 
" clip-path="url(#p99fe419516)" style="fill: none; stroke-dasharray: 3.7,1.6; stroke-dashoffset: 0; stroke: #000000"/>
   </g>
   <g id="line2d_46">
    <path d="M 768.383688 106.471687 
L 768.383688 152.816062 
" clip-path="url(#p99fe419516)" style="fill: none; stroke-dasharray: 3.7,1.6; stroke-dashoffset: 0; stroke: #000000"/>
   </g>
   <g id="line2d_47">
    <path d="M 768.383688 152.816062 
L 768.383688 199.160437 
" clip-path="url(#p99fe419516)" style="fill: none; stroke-dasharray: 3.7,1.6; stroke-dashoffset: 0; stroke: #000000"/>
   </g>
   <g id="line2d_48">
    <path d="M 768.383688 199.160437 
L 768.383688 245.504812 
" clip-path="url(#p99fe419516)" style="fill: none; stroke-dasharray: 3.7,1.6; stroke-dashoffset: 0; stroke: #000000"/>
   </g>
   <g id="line2d_49">
    <path d="M 768.383688 245.504812 
L 768.383688 291.849187 
" clip-path="url(#p99fe419516)" style="fill: none; stroke-dasharray: 3.7,1.6; stroke-dashoffset: 0; stroke: #000000"/>
   </g>
   <g id="text_12">
    <g clip-path="url(#p99fe419516)">
     <!-- 1 -->
     <g transform="translate(826.314157 308.224063)scale(0.104 -0.104)">
      <use xlink:href="#DejaVuSans-31"/>
     </g>
    </g>
   </g>
   <g id="text_13">
    <g clip-path="url(#p99fe419516)">
     <!-- 0 -->
     <g transform="translate(872.658532 308.224063)scale(0.104 -0.104)">
      <use xlink:href="#DejaVuSans-30"/>
     </g>
    </g>
   </g>
   <g id="line2d_50">
    <path d="M 907.416813 60.127312 
L 907.416813 106.471687 
" clip-path="url(#p99fe419516)" style="fill: none; stroke-dasharray: 3.7,1.6; stroke-dashoffset: 0; stroke: #000000"/>
   </g>
   <g id="line2d_51">
    <path d="M 907.416813 106.471687 
L 907.416813 152.816062 
" clip-path="url(#p99fe419516)" style="fill: none; stroke-dasharray: 3.7,1.6; stroke-dashoffset: 0; stroke: #000000"/>
   </g>
   <g id="line2d_52">
    <path d="M 907.416813 152.816062 
L 907.416813 199.160437 
" clip-path="url(#p99fe419516)" style="fill: none; stroke-dasharray: 3.7,1.6; stroke-dashoffset: 0; stroke: #000000"/>
   </g>
   <g id="line2d_53">
    <path d="M 907.416813 199.160437 
L 907.416813 245.504812 
" clip-path="url(#p99fe419516)" style="fill: none; stroke-dasharray: 3.7,1.6; stroke-dashoffset: 0; stroke: #000000"/>
   </g>
   <g id="line2d_54">
    <path d="M 907.416813 245.504812 
L 907.416813 291.849187 
" clip-path="url(#p99fe419516)" style="fill: none; stroke-dasharray: 3.7,1.6; stroke-dashoffset: 0; stroke: #000000"/>
   </g>
   <g id="text_14">
    <g clip-path="url(#p99fe419516)">
     <!-- c_1=0x1 -->
     <g transform="translate(936.207438 329.996028)scale(0.08 -0.08)">
      <defs>
       <path id="DejaVuSans-5f" d="M 3263 -1063 
L 3263 -1509 
L -63 -1509 
L -63 -1063 
L 3263 -1063 
z
" transform="scale(0.015625)"/>
       <path id="DejaVuSans-3d" d="M 678 2906 
L 4684 2906 
L 4684 2381 
L 678 2381 
L 678 2906 
z
M 678 1631 
L 4684 1631 
L 4684 1100 
L 678 1100 
L 678 1631 
z
" transform="scale(0.015625)"/>
       <path id="DejaVuSans-78" d="M 3513 3500 
L 2247 1797 
L 3578 0 
L 2900 0 
L 1881 1375 
L 863 0 
L 184 0 
L 1544 1831 
L 300 3500 
L 978 3500 
L 1906 2253 
L 2834 3500 
L 3513 3500 
z
" transform="scale(0.015625)"/>
      </defs>
      <use xlink:href="#DejaVuSans-63"/>
      <use xlink:href="#DejaVuSans-5f" x="54.980469"/>
      <use xlink:href="#DejaVuSans-31" x="104.980469"/>
      <use xlink:href="#DejaVuSans-3d" x="168.603516"/>
      <use xlink:href="#DejaVuSans-30" x="252.392578"/>
      <use xlink:href="#DejaVuSans-78" x="316.015625"/>
      <use xlink:href="#DejaVuSans-31" x="375.195312"/>
     </g>
    </g>
   </g>
   <g id="text_15">
    <g clip-path="url(#p99fe419516)">
     <!-- X -->
     <g transform="translate(949.308688 272.264187)scale(0.13 -0.13)">
      <defs>
       <path id="DejaVuSans-58" d="M 403 4666 
L 1081 4666 
L 2241 2931 
L 3406 4666 
L 4084 4666 
L 2584 2425 
L 4184 0 
L 3506 0 
L 2194 1984 
L 872 0 
L 191 0 
L 1856 2491 
L 403 4666 
z
" transform="scale(0.015625)"/>
      </defs>
      <use xlink:href="#DejaVuSans-58"/>
     </g>
    </g>
   </g>
   <g id="text_16">
    <g clip-path="url(#p99fe419516)">
     <!-- c_0=0x1 -->
     <g transform="translate(982.551813 329.996028)scale(0.08 -0.08)">
      <use xlink:href="#DejaVuSans-63"/>
      <use xlink:href="#DejaVuSans-5f" x="54.980469"/>
      <use xlink:href="#DejaVuSans-30" x="104.980469"/>
      <use xlink:href="#DejaVuSans-3d" x="168.603516"/>
      <use xlink:href="#DejaVuSans-30" x="252.392578"/>
      <use xlink:href="#DejaVuSans-78" x="316.015625"/>
      <use xlink:href="#DejaVuSans-31" x="375.195312"/>
     </g>
    </g>
   </g>
   <g id="text_17">
    <g clip-path="url(#p99fe419516)">
     <!-- Z -->
     <g transform="translate(995.653063 272.264187)scale(0.13 -0.13)">
      <defs>
       <path id="DejaVuSans-5a" d="M 359 4666 
L 4025 4666 
L 4025 4184 
L 1075 531 
L 4097 531 
L 4097 0 
L 288 0 
L 288 481 
L 3238 4134 
L 359 4134 
L 359 4666 
z
" transform="scale(0.015625)"/>
      </defs>
      <use xlink:href="#DejaVuSans-5a"/>
     </g>
    </g>
   </g>
  </g>
 </g>
 <defs>
  <clipPath id="p99fe419516">
   <rect x="146.41715" y="46.224" width="884.275701" height="296.604"/>
  </clipPath>
 </defs>
</svg>
